<?xml version="1.0" standalone="no"?>
<!DOCTYPE svg PUBLIC "-//W3C//DTD SVG 20010904//EN"
 "http://www.w3.org/TR/2001/REC-SVG-20010904/DTD/svg10.dtd">
<svg version="1.0" xmlns="http://www.w3.org/2000/svg"
 width="500.000000pt" height="500.000000pt" viewBox="0 0 500.000000 500.000000"
 preserveAspectRatio="xMidYMid meet">
<metadata>
Created by potrace 1.11, written by Peter Selinger 2001-2013
</metadata>
<g transform="translate(0.000000,500.000000) scale(0.100000,-0.100000)"
fill="#000000" stroke="none">
<path d="M2938 4228 c-9 -6 -6 -7 8 -4 14 4 21 2 21 -8 0 -8 -6 -12 -14 -9 -7
3 -13 0 -13 -7 0 -7 -7 -10 -15 -6 -9 3 -15 0 -15 -10 0 -8 -5 -12 -10 -9 -6
4 -7 11 -4 17 5 7 2 8 -5 4 -7 -5 -10 -11 -7 -14 9 -8 -25 -42 -36 -36 -5 3
-19 -2 -31 -13 -21 -18 -21 -18 -7 2 14 18 14 19 -2 7 -10 -8 -23 -10 -30 -6
-11 6 -11 5 0 -8 10 -12 10 -17 0 -25 -18 -14 -60 -14 -52 -1 5 7 2 8 -5 4 -7
-5 -10 -14 -7 -22 3 -9 0 -11 -11 -7 -11 5 -14 3 -8 -6 6 -11 3 -11 -16 0 -23
12 -23 11 -9 -7 8 -10 11 -16 6 -12 -4 4 -18 3 -31 -2 -15 -6 -27 -4 -34 3 -7
7 -12 8 -11 2 5 -22 -1 -27 -17 -14 -14 11 -14 9 1 -9 19 -22 19 -22 1 -16
-14 6 -16 4 -10 -7 7 -11 5 -11 -10 1 -17 14 -18 13 -12 -3 4 -11 3 -16 -3
-12 -5 3 -19 8 -31 10 -18 4 -19 2 -7 -12 9 -12 9 -15 1 -9 -7 4 -13 3 -13 -2
0 -5 -7 -9 -15 -9 -8 0 -15 5 -15 10 0 6 -3 7 -6 4 -4 -4 -1 -14 7 -23 13 -16
12 -16 -8 -6 -16 9 -24 9 -29 0 -4 -6 -3 -8 4 -4 6 3 13 2 17 -4 3 -5 1 -10
-5 -10 -6 0 -9 -4 -6 -9 4 -5 0 -12 -6 -14 -7 -3 -4 -6 8 -6 28 -1 35 -10 24
-32 -9 -15 -6 -17 18 -14 15 2 21 2 15 -1 -25 -11 -13 -31 16 -30 16 1 27 6
24 12 -2 7 6 10 22 8 19 -2 25 1 21 12 -3 7 -2 13 2 12 4 -1 22 6 41 16 23 12
31 14 26 4 -3 -7 0 -5 8 4 11 14 16 15 27 5 10 -10 10 -8 0 12 -8 16 -9 21 -1
16 7 -4 19 -1 28 7 12 9 15 9 9 1 -5 -9 -2 -11 8 -7 9 3 14 10 11 14 -3 5 -1
11 4 15 5 3 14 -2 20 -12 8 -16 10 -14 16 10 7 26 15 31 44 28 7 -2 10 2 6 8
-3 6 -2 11 4 11 5 0 12 -6 14 -12 3 -8 6 -7 6 4 1 9 10 20 21 23 11 3 20 11
20 17 0 6 3 8 6 5 4 -4 1 -14 -7 -23 -13 -16 -12 -16 8 -4 12 8 19 18 17 22
-3 4 3 8 13 8 11 0 25 6 32 13 11 10 14 9 18 -1 4 -10 8 -10 19 -1 12 10 13 9
8 -6 -5 -11 -3 -16 2 -12 6 3 19 -8 29 -25 16 -27 16 -30 2 -25 -11 4 -14 2
-10 -8 3 -8 9 -12 14 -9 5 3 9 0 9 -6 0 -6 4 -8 10 -5 6 3 7 -1 4 -9 -3 -9
-11 -13 -17 -9 -6 3 -7 1 -3 -5 4 -7 17 -12 29 -12 20 0 20 0 1 -16 -10 -8
-14 -13 -8 -10 7 3 14 0 17 -8 9 -23 -5 -27 -26 -9 -19 17 -20 17 -8 -4 14
-28 14 -30 -3 -36 -9 -4 -14 -1 -12 6 1 7 1 9 -1 4 -3 -4 -9 -5 -14 -2 -5 4
-6 -1 -2 -10 3 -10 0 -21 -8 -26 -22 -14 -35 -10 -14 4 14 11 15 16 5 22 -9 5
-11 4 -6 -3 4 -7 1 -12 -8 -12 -8 0 -17 -6 -19 -12 -3 -7 -6 -2 -7 12 -1 23
-2 23 -10 5 -5 -11 -9 -14 -9 -7 -1 8 -6 10 -13 6 -9 -5 -8 -2 1 9 8 10 11 20
7 24 -3 3 -6 1 -6 -5 0 -7 -7 -12 -15 -12 -8 0 -15 5 -15 11 0 5 -4 8 -9 4 -6
-3 -8 3 -6 14 2 14 -1 18 -11 14 -10 -3 -14 2 -14 18 0 19 -2 21 -10 9 -8 -12
-10 -10 -10 8 0 15 -5 22 -12 19 -7 -2 -12 -9 -11 -15 2 -6 -4 -9 -12 -6 -10
4 -13 0 -10 -15 3 -15 0 -18 -13 -14 -15 6 -16 5 -2 -12 9 -11 10 -16 3 -11
-8 4 -13 1 -13 -9 0 -9 -5 -13 -10 -10 -6 4 -7 11 -4 17 4 7 2 8 -5 4 -6 -4
-8 -12 -5 -18 9 -15 -17 -58 -35 -58 -14 0 -14 -2 -1 -10 10 -6 11 -10 3 -10
-7 0 -13 -8 -13 -17 0 -15 -2 -16 -10 -3 -8 12 -10 12 -10 -5 -1 -22 -27 -62
-35 -53 -3 3 1 11 10 18 8 7 15 17 15 22 0 6 -9 0 -19 -13 -14 -18 -16 -27 -9
-37 8 -10 6 -11 -8 -5 -17 6 -17 5 -5 -10 12 -15 12 -17 -4 -11 -12 5 -16 4
-12 -3 4 -6 1 -14 -5 -17 -10 -5 -10 -7 0 -12 10 -5 10 -9 0 -22 -7 -10 -9
-14 -4 -10 12 10 57 -34 47 -46 -6 -7 -2 -20 11 -36 l20 -25 -18 30 c-17 28
-17 29 0 15 10 -8 25 -15 33 -16 11 -2 12 0 2 12 -10 12 -10 15 1 12 7 -2 15
3 18 11 3 9 0 11 -9 6 -8 -5 -11 -5 -7 0 4 4 17 13 29 19 22 11 31 32 30 70 0
10 3 16 6 12 3 -3 12 2 20 12 8 9 11 11 7 3 -5 -10 -3 -12 5 -7 9 6 9 11 -1
24 -11 13 -11 14 1 7 11 -6 13 -3 9 12 -4 15 0 19 16 19 15 -1 20 4 18 17 -2
12 4 17 19 17 19 0 20 2 9 18 -8 9 0 4 16 -13 17 -16 33 -38 37 -47 3 -10 12
-18 19 -18 9 0 8 3 -2 10 -9 6 -10 10 -3 10 6 0 19 -10 27 -22 15 -21 16 -21
16 -3 1 20 1 20 15 1 13 -18 19 -15 16 6 0 4 6 5 14 2 8 -4 12 -10 9 -15 -3
-5 2 -6 10 -3 9 3 14 10 11 15 -6 9 29 4 48 -7 9 -6 9 -4 -1 8 -11 14 -10 16
7 11 19 -5 26 4 22 29 0 4 5 5 13 2 8 -3 17 0 21 5 3 6 11 8 17 5 7 -4 8 -2 4
5 -5 7 -13 9 -20 4 -7 -4 -4 -1 6 8 9 9 14 19 11 23 -4 3 -1 6 5 6 7 0 12 5
12 11 0 5 -4 8 -8 5 -5 -3 -9 1 -9 9 0 8 4 12 8 10 14 -9 18 25 4 39 -11 11
-12 16 -2 19 9 4 8 6 -2 6 -11 1 -11 4 -1 16 11 13 10 14 -2 10 -12 -5 -15 0
-13 19 2 14 -2 29 -7 33 -6 3 -8 2 -5 -4 3 -5 -1 -10 -9 -10 -10 0 -11 4 -4
11 16 16 12 26 -12 27 -21 0 -21 1 -4 8 18 7 18 8 2 14 -16 6 -16 10 -5 24 12
15 12 16 -5 10 -17 -7 -17 -6 -5 9 13 16 12 16 -8 6 -16 -9 -24 -9 -29 0 -4 7
-3 8 4 4 7 -4 12 -2 12 3 0 6 -4 11 -9 11 -5 0 -12 7 -15 16 -6 15 -4 15 11 3
16 -12 17 -12 6 2 -7 9 -10 19 -6 23 4 4 0 4 -8 1 -9 -3 -22 1 -29 10 -7 8 -9
15 -5 15 4 0 1 8 -6 17 -8 9 -9 14 -3 10 6 -3 11 0 11 8 0 8 -5 11 -10 8 -6
-4 -8 0 -5 9 5 12 -3 15 -43 15 -26 0 -54 -4 -61 -9z m-183 -629 c-4 -5 -12
-9 -18 -8 -9 0 -8 2 1 6 6 2 9 10 6 15 -4 7 -2 8 5 4 6 -4 9 -12 6 -17z"/>
<path d="M2846 4158 c3 -5 10 -6 15 -3 13 9 11 12 -6 12 -8 0 -12 -4 -9 -9z"/>
<path d="M2755 4110 c-3 -5 -2 -10 4 -10 5 0 13 5 16 10 3 6 2 10 -4 10 -5 0
-13 -4 -16 -10z"/>
<path d="M2110 3996 c0 -15 -3 -16 -15 -6 -8 7 -20 8 -27 4 -18 -12 -32 -11
-41 1 -4 5 -5 -3 -1 -20 3 -17 2 -25 -3 -19 -4 6 -18 13 -31 17 -19 4 -21 3
-12 -8 10 -11 8 -13 -9 -10 -11 2 -20 0 -18 -5 1 -5 -7 -16 -18 -25 -11 -9
-14 -14 -7 -10 6 3 12 2 12 -3 0 -5 -9 -12 -20 -15 -13 -3 -18 -10 -14 -21 3
-9 1 -23 -5 -30 -7 -8 -8 -16 -4 -18 4 -3 2 -3 -5 -1 -23 5 -34 -7 -21 -23 10
-12 10 -15 -2 -12 -9 2 -14 -5 -13 -23 1 -21 -3 -25 -22 -23 -21 2 -22 0 -13
-18 8 -16 8 -19 -1 -13 -8 5 -11 3 -8 -6 3 -8 -7 -25 -21 -38 -18 -16 -21 -22
-8 -17 11 3 16 2 12 -4 -3 -6 -13 -10 -21 -10 -17 0 -19 -30 -1 -30 6 0 4 -5
-6 -11 -9 -5 -23 -7 -30 -3 -8 5 -7 2 2 -9 12 -15 9 -21 -11 -18 -4 0 -4 -7
-1 -16 5 -12 3 -14 -7 -8 -10 6 -12 2 -8 -18 4 -19 1 -24 -10 -19 -11 4 -13 2
-7 -8 6 -9 4 -12 -7 -8 -8 4 -15 0 -15 -8 0 -7 5 -11 11 -8 6 3 2 -2 -9 -11
-11 -9 -19 -23 -17 -32 2 -9 -1 -12 -8 -8 -9 6 -9 2 0 -15 7 -12 8 -20 3 -17
-4 3 -17 -1 -28 -9 -10 -8 -13 -14 -7 -14 10 0 10 -3 0 -14 -7 -8 -17 -11 -23
-8 -5 3 -5 -1 2 -9 9 -11 8 -19 -4 -34 -15 -19 -15 -19 -8 5 5 19 4 21 -4 10
-6 -8 -11 -28 -11 -44 0 -20 -4 -27 -14 -23 -11 4 -13 1 -9 -10 5 -12 3 -14
-8 -8 -8 4 -11 5 -7 0 4 -4 2 -15 -5 -23 -6 -9 -7 -13 -1 -9 6 3 11 0 11 -8 0
-10 -5 -11 -17 -5 -14 8 -16 5 -12 -17 4 -20 2 -24 -8 -18 -10 6 -12 4 -7 -8
3 -9 -5 -26 -21 -43 -15 -15 -21 -24 -14 -20 6 4 12 2 12 -3 0 -10 -22 -16
-44 -12 -5 1 -4 -5 4 -13 8 -10 9 -16 2 -16 -7 0 -9 -7 -5 -17 5 -12 3 -14 -8
-8 -11 7 -11 5 1 -10 14 -17 13 -18 -3 -12 -13 5 -17 2 -15 -11 2 -11 -3 -17
-14 -16 -21 2 -24 -12 -5 -19 9 -4 9 -6 0 -6 -7 -1 -10 -8 -6 -16 3 -10 0 -15
-8 -13 -8 2 -13 -4 -13 -14 1 -10 -1 -17 -5 -16 -19 2 -24 -4 -11 -13 12 -9
10 -10 -8 -6 -20 5 -21 3 -11 -10 8 -9 9 -17 3 -21 -6 -4 -13 -15 -17 -25 -4
-10 -11 -15 -17 -12 -6 3 -7 -1 -4 -9 4 -9 1 -16 -6 -16 -9 0 -10 -3 -1 -14 8
-10 8 -16 -2 -25 -8 -6 -16 -8 -19 -5 -3 3 -16 -9 -29 -27 -13 -18 -18 -29
-11 -25 11 7 18 -13 12 -39 -1 -5 2 -7 5 -3 4 4 17 3 29 -3 17 -9 17 -7 -4 11
-21 18 -21 20 -4 11 12 -6 24 -7 28 -4 6 6 10 -11 7 -32 -1 -5 8 1 19 14 11
13 20 18 20 12 0 -6 5 -11 11 -11 5 0 7 4 4 10 -4 7 3 7 19 0 17 -6 26 -6 26
0 0 6 -5 10 -12 10 -6 0 -8 3 -4 7 4 5 14 -1 22 -11 14 -20 14 -20 15 0 0 17
1 17 11 -3 10 -21 12 -22 25 -5 10 12 16 14 19 5 8 -20 24 -15 18 5 -5 16 -5
16 6 0 11 -19 36 -26 25 -8 -3 6 -1 10 4 10 6 0 11 -4 11 -9 0 -5 12 -8 26 -5
19 3 24 1 18 -8 -6 -9 -3 -9 9 1 15 12 19 12 31 -4 13 -18 14 -18 27 3 15 24
34 30 26 8 -4 -10 0 -12 14 -9 10 3 19 10 19 15 0 5 -6 6 -12 2 -9 -5 -9 -2 1
9 14 18 26 23 16 8 -3 -5 -1 -12 5 -16 6 -4 7 -11 4 -17 -5 -7 -2 -8 5 -4 7 5
10 15 7 25 -5 14 -4 14 7 -1 8 -10 17 -15 20 -11 4 3 7 0 7 -7 0 -7 3 -10 6
-7 4 4 2 13 -5 20 -9 12 -6 14 16 11 15 -1 29 -8 31 -13 2 -6 8 -11 13 -11 6
0 7 5 3 11 -5 8 -1 8 14 0 25 -13 35 -14 27 -2 -3 5 -1 12 4 15 5 4 13 1 17
-5 5 -8 3 -9 -6 -4 -9 5 -11 4 -6 -4 5 -7 12 -9 19 -3 7 5 21 12 32 16 17 5
16 3 -5 -16 -14 -13 -20 -19 -13 -15 6 5 18 5 24 1 8 -4 9 -3 5 5 -6 8 -1 10
17 6 15 -4 28 -2 32 5 5 9 1 10 -16 6 -13 -3 -18 -3 -11 0 6 3 9 10 6 16 -4 6
2 6 14 -1 12 -6 26 -19 32 -29 8 -14 9 -12 6 11 -3 16 -1 25 5 22 5 -4 6 -11
3 -17 -5 -7 -1 -9 9 -5 9 3 17 2 19 -4 2 -5 13 -11 26 -14 13 -2 20 0 16 6 -3
6 4 7 19 4 14 -4 28 -2 31 3 3 6 -3 8 -16 6 -21 -4 -21 -4 -3 4 27 12 49 4 35
-13 -8 -9 -8 -15 0 -20 6 -4 9 -1 8 7 -2 7 3 12 10 10 8 -1 11 2 7 7 -6 11 27
7 48 -5 9 -6 9 -4 -1 8 -11 14 -10 16 7 11 12 -3 18 -9 15 -14 -3 -5 0 -9 5
-9 6 0 11 5 11 10 0 6 5 10 11 10 5 0 7 -5 3 -11 -3 -6 6 -3 22 7 l29 18 -20
-24 c-11 -14 -13 -19 -5 -12 17 14 34 16 25 2 -3 -5 8 -2 24 8 17 9 31 21 31
25 0 5 -4 5 -10 2 -5 -3 -10 -2 -10 4 0 5 4 12 9 15 11 7 9 32 -4 43 -4 4 -5
2 0 -6 5 -9 4 -12 -3 -7 -6 4 -8 14 -5 23 5 13 2 15 -16 10 -22 -5 -22 -5 -6
13 12 14 13 20 4 26 -8 4 -10 3 -5 -4 4 -7 2 -12 -5 -12 -7 0 -9 10 -7 25 4
21 3 23 -9 13 -8 -6 -13 -7 -12 -2 4 23 -2 35 -13 28 -10 -6 -10 -4 0 8 9 11
10 18 2 23 -6 3 -8 11 -4 16 3 5 2 9 -3 8 -22 -4 -34 3 -31 17 2 10 -5 18 -17
21 -93 18 -139 24 -131 16 3 -3 18 -7 33 -8 15 0 28 -7 31 -15 2 -9 0 -11 -5
-5 -4 6 -15 10 -23 10 -8 -1 -25 2 -37 6 -13 5 -23 4 -25 -3 -4 -12 -38 -21
-37 -10 3 20 -2 32 -11 27 -6 -4 -8 -10 -5 -15 3 -5 0 -12 -6 -16 -8 -4 -9 -3
-5 4 4 7 2 12 -4 12 -6 0 -9 4 -6 8 3 5 -2 9 -10 9 -8 0 -13 -6 -10 -12 4 -13
-22 -14 -42 -1 -19 12 -53 16 -47 5 4 -5 10 -7 15 -4 5 3 12 0 16 -7 4 -7 4
-10 -1 -6 -4 4 -15 2 -23 -5 -13 -10 -14 -9 -7 2 6 11 4 13 -8 8 -9 -3 -19 -1
-23 5 -4 7 -3 8 4 4 7 -4 12 -2 12 4 0 7 -7 9 -16 6 -9 -3 -17 -6 -20 -6 -2 0
-1 -8 2 -17 4 -10 -4 -4 -16 12 -20 28 -21 28 -14 5 6 -22 5 -23 -9 -12 -8 7
-24 15 -35 17 -16 3 -19 0 -15 -12 4 -10 2 -14 -4 -10 -6 4 -13 2 -15 -5 -3
-7 -7 -5 -11 6 -4 9 -3 15 1 12 5 -3 9 1 9 9 0 19 -2 19 -21 -1 -15 -14 -16
-14 -13 5 2 11 6 24 10 27 12 12 8 26 -5 18 -6 -4 -8 -3 -4 4 3 6 15 9 26 7
17 -3 19 -1 10 15 -8 16 -6 22 9 32 16 10 18 15 8 27 -9 12 -9 13 1 7 7 -4 12
-2 12 4 0 6 4 9 9 6 5 -4 7 2 4 13 -3 10 1 22 8 26 8 5 10 4 5 -3 -5 -8 -2
-10 8 -6 14 5 14 8 1 21 -19 18 -19 24 0 17 10 -4 13 0 10 16 -3 17 -1 20 9
11 11 -9 14 -8 12 6 -1 12 5 17 19 16 17 -1 17 1 -5 18 -18 14 -20 17 -6 12
13 -4 17 -3 12 5 -6 11 5 17 27 13 11 -2 8 6 -10 25 -16 16 -16 16 4 10 18 -6
21 -3 19 19 -3 26 29 79 43 70 5 -2 7 7 5 20 -1 14 2 23 7 19 5 -3 9 2 9 10 0
10 9 16 22 16 21 0 21 1 3 13 -14 11 -15 16 -5 22 9 6 11 4 5 -5 -5 -9 -4 -11
3 -6 7 4 12 14 12 22 0 8 7 17 15 20 8 4 12 11 8 17 -4 7 0 8 12 3 15 -5 16
-4 5 9 -8 9 -8 15 -2 15 6 0 9 9 7 20 -2 11 0 18 6 15 5 -4 9 -1 9 6 0 7 3 9
7 6 3 -4 11 3 18 16 8 15 8 25 1 30 -7 6 -5 7 5 4 9 -3 22 0 29 6 10 9 11 9 6
0 -4 -7 -2 -13 3 -13 6 0 11 -6 11 -14 0 -8 7 -17 16 -20 10 -4 14 -12 10 -22
-4 -11 1 -18 14 -21 11 -3 20 -12 20 -19 0 -23 2 -28 19 -42 9 -8 10 -10 2 -6
-10 5 -12 3 -7 -5 5 -7 14 -10 20 -8 7 3 13 -1 13 -8 0 -7 -7 -11 -16 -8 -12
3 -11 2 2 -7 9 -6 15 -15 12 -20 -3 -5 6 -17 19 -28 18 -14 22 -22 14 -30 -8
-8 -4 -9 13 -6 19 5 21 4 9 -5 -13 -9 -13 -11 3 -11 12 0 17 -8 17 -29 0 -20
6 -30 19 -34 10 -2 24 -15 31 -28 11 -24 11 -24 -10 1 l-21 25 12 -25 c7 -14
19 -31 28 -38 13 -11 13 -12 1 -6 -8 4 -12 4 -8 -1 4 -4 2 -15 -5 -23 -9 -11
-4 -10 16 3 25 16 27 16 21 1 -4 -11 1 -23 12 -32 19 -15 19 -15 0 -10 -16 6
-17 4 -6 -9 7 -8 19 -15 28 -15 8 0 13 -3 9 -6 -3 -4 0 -19 8 -35 9 -16 14
-32 13 -36 -2 -5 8 -20 21 -33 13 -14 20 -19 16 -11 -5 9 -4 12 3 7 7 -4 12
-20 12 -37 0 -16 5 -29 11 -29 5 0 7 4 4 10 -3 6 1 7 10 4 14 -6 14 -8 -1 -19
-14 -9 -14 -14 -4 -20 9 -5 11 -4 6 3 -4 7 -5 12 -2 12 3 0 10 -10 17 -21 7
-15 8 -19 0 -15 -7 5 -9 1 -5 -8 3 -9 10 -13 15 -10 5 3 9 -2 9 -11 0 -10 -5
-13 -12 -9 -7 4 -8 3 -4 -4 4 -6 14 -8 23 -5 12 5 15 2 10 -10 -3 -9 -1 -19 5
-23 6 -4 8 -3 4 4 -3 6 -2 13 3 16 11 7 9 -13 -3 -32 -5 -9 -1 -15 14 -19 13
-3 19 -11 16 -20 -3 -7 1 -16 9 -19 7 -3 11 -12 8 -20 -4 -10 0 -12 13 -7 17
6 17 5 6 -10 -17 -20 -7 -38 16 -30 9 3 14 2 9 -2 -4 -5 0 -19 9 -33 9 -13 11
-21 5 -18 -6 4 -11 3 -11 -2 0 -6 7 -13 16 -16 10 -4 14 -12 10 -22 -6 -15 -4
-15 11 -3 9 8 14 9 10 3 -4 -7 -1 -17 7 -23 8 -7 12 -21 8 -33 -4 -17 -2 -20
11 -15 11 4 15 1 12 -14 -2 -10 2 -19 8 -19 7 0 6 -4 -3 -10 -13 -8 -12 -10 3
-10 15 0 16 -3 7 -20 -6 -11 -7 -20 -3 -19 23 4 32 -2 26 -18 -4 -10 -2 -14 5
-9 6 3 14 -3 18 -16 13 -38 12 -45 -2 -45 -7 0 -11 4 -8 9 3 4 0 8 -5 8 -6 0
-11 -7 -11 -15 0 -8 -5 -15 -11 -15 -5 0 -8 4 -4 9 3 5 0 13 -6 17 -7 4 -9 3
-5 -4 3 -6 2 -13 -4 -17 -5 -3 -10 -2 -10 3 0 6 -7 13 -16 16 -13 5 -14 4 -6
-7 9 -10 8 -14 -3 -14 -8 0 -15 4 -15 8 0 4 -7 10 -16 13 -14 6 -15 4 -4 -9
11 -13 11 -16 -1 -13 -7 2 -20 9 -27 15 -8 8 -20 10 -30 4 -9 -4 -23 -6 -31
-3 -9 3 -11 0 -6 -9 5 -8 5 -11 0 -7 -4 4 -14 3 -21 -3 -10 -9 -15 -7 -20 4
-3 9 -12 18 -20 21 -8 3 -12 2 -9 -3 3 -5 1 -12 -5 -16 -5 -3 -10 -2 -10 3 0
18 -29 21 -45 6 -8 -9 -15 -11 -15 -5 0 6 -5 11 -11 11 -5 0 -7 -5 -3 -12 4
-6 3 -8 -4 -4 -6 3 -13 2 -17 -4 -3 -5 -11 -10 -18 -10 -6 0 -2 7 9 15 15 12
16 14 3 15 -9 0 -19 -3 -23 -7 -10 -11 -37 -12 -30 -2 3 5 10 6 16 3 7 -4 8
-2 4 4 -4 6 -13 9 -21 5 -9 -3 -23 1 -33 8 -13 10 -12 8 3 -9 14 -17 15 -23 5
-20 -8 2 -21 9 -28 16 -16 15 -32 16 -32 1 0 -5 4 -8 9 -4 5 3 13 0 17 -7 4
-7 4 -10 -1 -6 -4 4 -14 3 -22 -4 -11 -9 -13 -8 -11 2 2 7 -3 15 -11 18 -10 3
-12 0 -8 -11 4 -11 2 -14 -9 -10 -8 3 -13 12 -10 19 3 8 1 14 -4 14 -6 0 -10
-4 -10 -10 0 -5 -8 -6 -17 -3 -12 5 -15 2 -10 -10 4 -11 2 -14 -9 -10 -8 3
-13 12 -10 19 3 8 1 14 -4 14 -6 0 -10 -8 -11 -17 0 -12 -2 -13 -6 -5 -4 10
-8 10 -21 0 -9 -7 -13 -8 -10 -3 4 6 -5 16 -19 22 -25 12 -25 12 -7 -8 14 -15
15 -20 4 -17 -8 2 -21 9 -28 16 -16 15 -32 16 -32 1 0 -5 4 -8 9 -4 5 3 12 2
15 -3 2 -4 -4 -9 -15 -9 -10 -1 -19 3 -19 8 0 6 -5 7 -10 4 -6 -4 -7 -11 -4
-17 4 -7 2 -8 -5 -4 -6 4 -9 12 -6 17 4 5 -1 9 -10 9 -9 0 -14 -4 -11 -9 5 -7
-12 -8 -47 -2 -5 0 -5 6 -2 11 3 6 1 10 -4 10 -10 0 -15 -14 -12 -33 1 -5 -3
-6 -9 -2 -6 3 -7 12 -3 18 4 7 -2 5 -12 -3 -10 -8 -16 -10 -13 -5 4 6 -5 16
-19 22 -25 12 -25 12 -7 -8 14 -15 15 -20 4 -17 -8 2 -21 9 -28 15 -16 16 -32
17 -32 2 0 -5 4 -8 9 -4 5 3 13 0 17 -7 4 -7 4 -10 -1 -6 -4 4 -14 3 -22 -4
-11 -9 -13 -8 -11 2 2 7 -3 15 -11 18 -10 3 -12 0 -8 -11 4 -11 2 -14 -9 -10
-8 3 -13 12 -10 19 3 8 1 14 -4 14 -6 0 -10 -4 -10 -10 0 -5 -8 -6 -17 -3 -12
5 -15 2 -10 -10 4 -11 2 -14 -9 -10 -8 3 -13 12 -10 19 3 8 1 14 -4 14 -6 0
-10 -8 -11 -17 0 -12 -2 -13 -6 -5 -4 10 -8 10 -21 0 -9 -7 -13 -8 -10 -3 4 6
-5 16 -19 22 -25 12 -25 12 -7 -8 14 -15 15 -20 4 -17 -8 2 -21 9 -28 16 -16
15 -32 16 -32 1 0 -5 4 -8 9 -4 5 3 12 2 15 -3 7 -11 -27 -11 -35 0 -8 12 -40
-2 -33 -14 4 -7 0 -7 -12 0 -11 5 -27 8 -37 6 -11 -1 -17 2 -14 10 3 8 -6 12
-28 12 -23 -1 -31 -4 -24 -12 5 -7 3 -11 -6 -11 -14 0 -19 11 -16 31 1 5 -5 4
-13 -3 -8 -7 -20 -10 -25 -6 -6 3 -8 0 -5 -8 3 -8 -1 -14 -10 -14 -8 0 -13 4
-11 8 3 4 -1 9 -8 11 -15 6 -38 -1 -33 -11 3 -4 -4 -8 -15 -8 -10 -1 -19 3
-19 8 0 6 4 8 8 5 5 -3 9 1 9 9 0 22 -15 18 -22 -5 -4 -11 -10 -18 -15 -15 -5
3 -11 -1 -13 -7 -4 -10 -6 -10 -6 0 -1 7 -5 10 -11 7 -5 -3 -10 -1 -10 5 0 7
7 10 15 7 8 -4 16 -3 19 1 3 4 -4 9 -15 9 -11 1 -23 -5 -26 -13 -3 -9 -8 -11
-12 -6 -8 14 -70 22 -77 11 -3 -5 -10 -7 -15 -4 -5 3 -6 -1 -3 -10 5 -11 2
-14 -10 -9 -11 4 -16 0 -16 -14 0 -11 -6 -22 -14 -25 -8 -3 -12 -16 -11 -31 2
-14 -4 -31 -13 -38 -15 -11 -15 -11 -5 3 10 13 10 16 -2 16 -8 0 -12 -4 -9 -8
2 -4 -4 -15 -13 -25 -17 -17 -17 -18 2 -11 18 7 19 6 3 -6 -10 -8 -15 -17 -11
-20 3 -4 1 -7 -5 -7 -6 0 -9 -9 -7 -19 3 -14 -1 -18 -11 -14 -8 3 -14 0 -14
-6 0 -21 -2 -26 -13 -40 -10 -12 -9 -12 10 -3 14 8 24 9 28 2 4 -6 11 -7 17
-4 6 4 8 2 5 -3 -4 -6 0 -14 9 -17 10 -4 13 -2 8 6 -5 8 -2 9 9 5 10 -3 17 -2
17 4 0 6 5 7 10 4 8 -5 7 -12 -2 -23 -12 -15 -11 -16 4 -4 10 8 23 10 30 6 10
-6 10 -5 1 7 -10 12 -6 14 23 14 20 -1 40 -8 45 -16 7 -11 9 -10 9 5 0 16 3
17 12 8 13 -13 32 -17 24 -4 -3 6 40 8 76 3 3 -1 9 -9 11 -18 4 -15 5 -16 6
-2 1 19 38 32 48 17 3 -6 2 -8 -3 -5 -6 3 -16 2 -23 -2 -7 -5 4 -8 27 -7 22 1
38 4 35 9 -8 13 10 7 31 -11 16 -13 18 -13 8 -1 -10 14 -8 16 18 17 17 0 30
-4 30 -10 0 -6 3 -8 7 -5 3 4 12 2 20 -5 11 -8 12 -7 8 5 -4 8 -1 18 6 23 7 4
10 3 5 -4 -3 -6 -2 -13 4 -17 5 -3 10 1 10 9 0 9 5 16 11 16 5 0 8 -4 5 -9 -3
-5 3 -11 15 -14 17 -5 18 -3 8 9 -10 12 -9 13 5 8 9 -3 16 -11 17 -18 0 -6 4
-2 9 9 6 15 9 16 9 4 1 -16 31 -23 31 -7 0 4 4 8 10 8 5 0 8 -6 6 -12 -1 -7
-1 -10 2 -5 2 4 13 12 25 18 21 10 21 9 3 -5 -18 -14 -18 -15 3 -13 11 1 21 7
21 14 0 16 15 17 32 1 7 -7 20 -14 27 -16 12 -3 12 0 0 14 -13 16 -12 16 9 5
13 -7 20 -17 15 -24 -4 -7 0 -7 10 2 9 7 17 10 17 7 0 -4 10 -2 21 5 13 7 19
7 15 1 -3 -6 -1 -14 5 -18 7 -4 9 -3 6 3 -4 6 -1 16 7 22 11 9 18 8 30 -4 11
-11 16 -12 16 -4 0 7 3 9 7 6 3 -4 12 -2 19 4 10 8 11 5 7 -13 -3 -16 -2 -19
5 -10 5 8 13 14 17 14 4 0 12 -6 17 -14 7 -9 8 -7 5 8 -4 17 -1 20 14 17 11
-3 19 -9 19 -13 0 -4 8 -10 18 -12 11 -3 19 0 19 7 0 7 -7 11 -16 8 -13 -4
-13 -3 -2 5 15 11 44 5 37 -7 -3 -4 6 -8 20 -9 13 -1 24 3 24 8 0 5 -8 7 -17
4 -15 -5 -15 -4 -4 4 10 7 21 7 34 0 16 -8 17 -12 6 -20 -12 -8 -11 -9 1 -5 8
2 14 9 13 15 -3 15 25 23 33 10 5 -7 2 -8 -7 -3 -8 5 -11 5 -7 0 4 -4 2 -15
-5 -24 -10 -14 -10 -14 4 -4 9 7 20 9 24 5 5 -4 5 -2 2 4 -4 7 0 17 8 24 13
11 14 10 10 -3 -4 -8 -1 -18 6 -23 7 -4 10 -3 5 4 -3 6 -2 13 4 17 5 3 10 1
10 -4 0 -6 5 -11 11 -11 5 0 8 4 4 9 -3 5 0 13 6 17 7 4 9 3 6 -2 -3 -6 -2
-16 4 -24 7 -12 9 -10 9 8 0 12 5 22 11 22 5 0 8 -4 5 -8 -2 -4 -1 -14 5 -22
7 -12 9 -11 9 5 0 11 4 16 8 10 4 -5 13 -11 21 -13 12 -3 12 -1 0 14 -13 16
-12 16 9 5 12 -7 20 -16 17 -21 -3 -5 -1 -11 4 -14 4 -3 8 4 7 16 0 12 6 23
14 25 13 4 13 3 0 -6 -8 -6 -13 -11 -10 -12 51 -9 54 -9 40 1 -13 8 -12 10 3
10 9 0 17 -4 17 -9 0 -5 7 -11 15 -15 13 -4 14 -2 5 14 -9 16 -8 18 5 14 14
-6 19 -18 15 -39 -1 -5 7 -2 17 6 10 9 24 14 32 11 10 -3 11 0 5 9 -6 11 -3
10 11 -1 11 -9 16 -10 11 -2 -11 18 5 14 20 -5 13 -17 14 -17 7 2 -3 11 -3 17
2 13 4 -4 15 -2 24 5 14 10 14 10 3 -4 -10 -14 -10 -18 2 -22 17 -7 30 8 21
23 -3 6 1 7 10 4 9 -4 14 -13 10 -22 -5 -13 -3 -13 12 -1 10 8 21 19 25 24 5
6 8 5 8 -3 0 -7 4 -11 9 -8 5 3 11 -4 14 -16 6 -20 7 -20 29 -5 13 8 22 20 21
26 -3 13 29 2 39 -13 5 -7 8 -5 8 4 0 13 1 13 10 0 5 -8 18 -16 29 -16 11 -1
18 2 15 7 -2 4 -11 6 -19 2 -10 -3 -15 1 -15 13 0 12 3 15 8 8 4 -6 15 -10 25
-8 9 1 17 -2 17 -7 0 -5 5 -9 11 -9 5 0 8 4 5 9 -4 5 1 8 9 7 19 -3 32 -16 16
-16 -7 0 -9 -5 -5 -11 5 -8 10 -6 16 5 6 11 14 14 21 8 7 -5 21 -6 32 -1 11 4
14 8 6 8 -8 1 -11 4 -8 7 4 4 13 1 22 -6 19 -15 94 -19 88 -4 -5 13 35 13 56
0 9 -6 19 -3 29 10 13 16 14 17 9 2 -7 -21 3 -23 22 -5 8 6 11 7 8 2 -3 -6 3
-17 15 -24 11 -7 17 -8 13 -2 -3 7 2 11 14 11 10 0 22 6 24 13 4 9 6 9 6 -1 1
-7 6 -10 11 -7 6 3 10 0 10 -7 0 -8 5 -6 11 5 6 10 15 14 22 10 7 -4 6 0 -2
10 -10 12 -10 17 -2 17 8 0 4 11 -8 29 -12 16 -21 32 -21 36 0 4 -11 16 -25
26 -15 13 -22 26 -18 36 4 11 3 14 -6 9 -6 -4 -11 -4 -10 1 4 22 -2 34 -13 27
-8 -5 -7 0 2 11 14 17 13 17 -10 10 -22 -7 -23 -6 -11 9 8 9 11 20 7 23 -4 4
-11 1 -16 -7 -6 -8 -10 -10 -10 -4 0 5 5 15 12 22 9 9 9 12 -1 12 -7 0 -19 7
-27 15 -9 9 -11 15 -4 15 7 0 6 5 -2 14 -7 8 -16 12 -19 10 -3 -2 -5 8 -3 22
2 18 -2 24 -11 20 -10 -3 -12 0 -8 11 5 12 3 14 -7 8 -10 -6 -12 -4 -7 8 4 10
2 17 -5 17 -6 0 -5 6 3 17 10 11 10 14 2 9 -8 -4 -13 -2 -13 4 0 6 -4 8 -10 5
-5 -3 -10 -1 -10 4 0 6 6 11 13 12 6 0 2 4 -10 9 -16 7 -21 14 -16 26 4 12 3
15 -5 10 -7 -4 -12 -3 -12 3 0 5 6 12 13 15 6 3 1 4 -12 3 -14 -1 -26 4 -28
13 -4 13 -3 13 7 0 9 -13 10 -12 7 5 -2 11 -8 19 -15 18 -8 -2 -9 4 -2 22 9
23 8 25 -9 15 -16 -8 -18 -7 -14 10 3 12 0 20 -6 20 -7 0 -9 -5 -5 -12 4 -6 3
-8 -4 -5 -5 4 -8 17 -4 29 4 16 2 19 -9 13 -11 -7 -11 -5 1 10 9 11 10 16 3
11 -7 -4 -13 -3 -13 3 0 5 6 12 13 15 6 3 3 4 -9 1 -24 -6 -52 19 -34 30 5 3
10 12 10 18 0 7 -4 6 -10 -3 -9 -14 -11 -11 -10 15 1 12 -26 32 -35 27 -5 -3
-4 2 4 12 12 14 12 17 1 14 -8 -2 -19 11 -26 32 -7 19 -18 34 -24 32 -7 -2 -9
5 -5 19 5 16 4 19 -6 14 -9 -6 -11 -3 -6 8 4 12 1 17 -11 18 -14 0 -14 2 3 9
19 8 19 9 -4 9 -17 1 -21 5 -17 17 4 10 2 13 -6 8 -7 -5 -9 0 -6 14 4 15 2 19
-8 15 -10 -4 -12 0 -7 13 4 11 3 15 -4 11 -6 -4 -14 4 -17 18 -4 17 -11 23
-19 18 -9 -5 -9 -4 0 8 12 15 4 39 -13 42 -5 1 -8 5 -7 9 2 5 -3 7 -10 5 -6
-1 -13 7 -13 18 -1 11 -2 26 -3 33 -1 7 -6 10 -13 6 -8 -5 -9 -2 -5 10 4 9 3
14 -2 11 -10 -5 -25 12 -26 30 -1 6 -7 9 -14 7 -7 -1 -10 2 -6 8 3 6 10 8 15
5 5 -3 12 0 16 6 4 7 3 9 -3 6 -6 -4 -16 0 -23 8 -10 12 -16 13 -26 4 -9 -7
-14 -8 -14 -1 0 6 5 12 11 14 8 3 8 10 -2 26 -12 20 -12 24 1 33 12 8 10 9 -7
4 -24 -7 -32 9 -10 19 6 3 1 3 -11 0 -22 -6 -23 -4 -11 18 11 21 11 22 -4 10
-13 -11 -15 -10 -10 7 4 15 1 21 -11 21 -10 0 -13 5 -9 17 4 10 2 14 -4 10 -6
-4 -14 0 -17 9 -3 8 -2 13 3 9 14 -8 7 20 -9 39 -7 10 -19 15 -26 12 -10 -4
-11 1 -3 21 9 24 8 25 -8 12 -15 -12 -16 -12 -10 3 3 10 2 20 -4 24 -6 3 -8
13 -5 21 4 11 2 13 -9 9 -17 -6 -31 34 -21 60 6 15 4 15 -10 3 -14 -12 -16
-10 -12 16 2 19 -2 30 -12 32 -12 4 -12 3 -1 -5 9 -7 10 -12 2 -16 -11 -7 -15
5 -12 32 1 6 -4 12 -11 12 -9 0 -9 3 2 10 11 7 11 10 2 10 -7 0 -10 5 -7 10 3
6 -1 10 -9 10 -18 0 -20 11 -6 28 7 9 7 9 -2 2 -19 -16 -31 -12 -26 8 3 10 -2
24 -10 32 -14 13 -15 12 -9 -4 6 -16 5 -17 -8 -6 -8 7 -13 16 -10 20 3 5 0 12
-6 16 -8 4 -9 3 -5 -4 4 -7 3 -12 -1 -12 -5 0 -14 9 -20 19 -13 21 -33 22 -55
3 -12 -9 -15 -9 -15 3 0 8 5 11 10 8 6 -3 7 -1 3 5 -5 9 -13 9 -26 2 -15 -8
-22 -6 -30 7 -11 17 -11 17 -6 1 3 -10 1 -18 -4 -18 -5 0 -14 8 -19 18 -10 16
-10 16 -11 -2z m-20 -16 c0 -5 -4 -10 -10 -10 -5 0 -10 5 -10 10 0 6 5 10 10
10 6 0 10 -4 10 -10z m166 -19 c1 -6 0 -7 -3 -1 -2 5 -9 8 -13 5 -5 -3 -11 -1
-14 4 -4 5 2 8 11 7 9 -2 18 -8 19 -15z m263 -374 c8 -10 7 -14 -2 -14 -8 0
-14 6 -14 14 0 7 1 13 2 13 2 0 8 -6 14 -13z m-244 -137 c-3 -5 2 -10 11 -10
10 0 15 -3 11 -6 -10 -10 -39 5 -32 16 3 5 8 10 11 10 3 0 2 -4 -1 -10z m235
-390 c0 -5 -7 -7 -15 -4 -8 4 -15 8 -15 10 0 2 7 4 15 4 8 0 15 -4 15 -10z
m-715 -129 c3 -5 2 -12 -3 -15 -5 -3 -9 1 -9 9 0 17 3 19 12 6z m449 -27 c3
-8 2 -12 -4 -9 -6 3 -10 10 -10 16 0 14 7 11 14 -7z m46 -39 c7 -9 8 -15 2
-15 -5 0 -12 7 -16 15 -3 8 -4 15 -2 15 2 0 9 -7 16 -15z m-1040 -185 c0 -5
-2 -10 -4 -10 -3 0 -8 5 -11 10 -3 6 -1 10 4 10 6 0 11 -4 11 -10z m330 -14
c0 -2 -6 -9 -14 -15 -11 -9 -16 -9 -22 0 -4 7 -3 9 4 5 6 -3 13 -2 17 4 6 10
15 14 15 6z m30 0 c0 -2 -8 -10 -17 -17 -16 -13 -17 -12 -4 4 13 16 21 21 21
13z m482 -10 c9 6 9 3 -1 -9 -8 -10 -14 -16 -15 -15 -1 2 -8 12 -16 23 -14 18
-14 19 2 7 10 -8 23 -10 30 -6z m272 5 c3 -5 -1 -11 -9 -14 -9 -4 -12 -1 -8 9
6 16 10 17 17 5z m-1057 -23 c-3 -8 -6 -5 -6 6 -1 11 2 17 5 13 3 -3 4 -12 1
-19z m318 12 c-3 -5 -1 -10 5 -10 6 0 8 -5 4 -11 -4 -8 -9 -7 -15 2 -7 12 -3
29 7 29 3 0 2 -4 -1 -10z m-228 -295 c0 -8 -4 -12 -9 -9 -5 3 -6 10 -3 15 9
13 12 11 12 -6z m73 6 c0 -5 -8 -15 -17 -22 -16 -12 -17 -12 -6 2 7 9 10 19 6
22 -3 4 -1 7 5 7 7 0 12 -4 12 -9z m1064 -12 c-3 -5 -10 -7 -15 -3 -5 3 -7 10
-3 15 3 5 10 7 15 3 5 -3 7 -10 3 -15z m160 0 c-3 -5 -10 -7 -15 -3 -5 3 -7
10 -3 15 3 5 10 7 15 3 5 -3 7 -10 3 -15z m656 -229 c0 -5 -4 -10 -10 -10 -5
0 -10 5 -10 10 0 6 5 10 10 10 6 0 10 -4 10 -10z m-1520 -24 c0 -2 -7 -7 -16
-10 -8 -3 -12 -2 -9 4 6 10 25 14 25 6z m688 -10 c-7 -8 -15 -12 -17 -11 -5 6
10 25 20 25 5 0 4 -6 -3 -14z m462 4 c8 -5 12 -11 10 -14 -3 -2 -14 2 -24 10
-22 15 -10 19 14 4z m83 -5 c-3 -9 -8 -14 -10 -11 -3 3 -2 9 2 15 9 16 15 13
8 -4z m287 11 c0 -3 -4 -8 -10 -11 -5 -3 -10 -1 -10 4 0 6 5 11 10 11 6 0 10
-2 10 -4z m-580 -17 c0 -4 -7 -9 -15 -13 -9 -3 -15 0 -15 8 0 7 7 13 15 13 8
0 15 -4 15 -8z m500 7 c0 -3 -4 -8 -10 -11 -5 -3 -10 -1 -10 4 0 6 5 11 10 11
6 0 10 -2 10 -4z"/>
<path d="M2806 3982 c-3 -5 1 -9 9 -9 8 0 12 4 9 9 -3 4 -7 8 -9 8 -2 0 -6 -4
-9 -8z"/>
<path d="M3301 3718 c-1 -21 -27 -24 -35 -5 -3 6 -2 -1 1 -18 6 -28 5 -29 -12
-15 -17 14 -18 13 -12 -2 4 -12 1 -18 -9 -18 -8 0 -12 4 -9 10 3 6 -1 7 -9 4
-9 -3 -13 -10 -10 -15 3 -5 -5 -9 -16 -9 -16 0 -20 -4 -16 -16 6 -15 4 -15
-11 -3 -9 8 -14 9 -10 2 4 -6 3 -14 -3 -18 -5 -3 -10 -2 -10 3 0 6 -10 9 -23
8 -16 -1 -23 -7 -23 -21 1 -16 -5 -19 -24 -17 -20 2 -22 1 -10 -8 12 -9 10
-11 -12 -7 -16 2 -28 0 -28 -6 0 -5 -7 -3 -17 4 -15 13 -15 12 -3 -11 12 -22
12 -24 -2 -12 -13 10 -18 10 -24 1 -4 -8 -3 -9 4 -5 7 4 12 2 12 -5 0 -7 -10
-9 -25 -7 -14 3 -25 1 -25 -4 0 -5 -5 -6 -12 -2 -8 5 -9 2 -5 -10 4 -9 3 -15
-2 -11 -5 3 -12 -1 -15 -7 -3 -7 -4 -2 -1 12 3 14 2 19 -1 13 -3 -7 -13 -13
-22 -13 -13 0 -14 -2 -3 -9 16 -10 3 -20 -22 -15 -13 2 -17 -2 -13 -12 7 -19
1 -18 -20 4 -17 16 -17 16 -12 -5 7 -27 5 -28 -18 -6 -16 16 -16 16 -10 -4 4
-13 2 -24 -5 -29 -7 -4 -9 -3 -6 3 3 5 0 10 -8 10 -10 0 -11 -5 -5 -17 5 -10
7 -20 3 -23 -3 -3 -2 -14 2 -24 5 -10 9 -22 9 -28 1 -5 10 -9 21 -7 11 2 16
-1 10 -5 -12 -10 -16 -45 -4 -37 5 3 9 0 9 -5 0 -22 2 -26 16 -34 8 -5 11 -13
8 -19 -5 -7 -2 -8 6 -3 10 6 12 4 6 -10 -5 -14 -4 -16 7 -7 11 9 13 5 12 -23
-1 -29 2 -32 14 -22 11 9 13 9 8 0 -4 -6 0 -19 9 -27 9 -9 14 -23 11 -31 -6
-14 16 -39 25 -29 4 3 9 -8 13 -25 4 -17 12 -31 18 -31 7 0 6 -5 -3 -11 -13
-9 -12 -10 2 -5 10 3 20 1 23 -4 4 -6 12 -10 18 -10 8 0 8 3 -2 9 -9 6 -10 11
-2 15 6 4 11 4 11 -1 0 -4 5 0 11 10 5 9 15 17 22 17 7 0 6 -4 -3 -10 -8 -5
-10 -10 -5 -10 6 0 17 5 25 10 12 7 12 10 1 10 -7 0 -11 6 -7 15 3 8 -2 21
-10 30 -8 8 -12 20 -9 26 4 6 -2 13 -13 16 -11 3 -23 12 -26 20 -4 9 -2 12 7
7 8 -5 7 -2 -2 9 -11 13 -11 17 -1 17 8 0 10 3 7 6 -4 4 -13 2 -21 -5 -11 -9
-13 -7 -13 13 0 14 -8 32 -17 41 -9 9 -13 21 -10 27 4 6 -2 8 -17 3 -13 -3
-19 -3 -14 2 12 10 16 45 5 38 -5 -3 -12 0 -16 6 -5 8 -3 9 6 4 10 -6 12 -4 6
10 -6 16 -4 16 10 4 16 -13 16 -12 5 9 -12 22 -11 23 8 13 14 -8 22 -8 27 1 5
7 3 8 -7 3 -8 -5 -11 -4 -6 0 12 14 49 17 41 4 -3 -6 5 -3 20 6 14 10 26 22
26 29 0 6 -5 4 -10 -4 -6 -9 -10 -10 -10 -3 0 22 17 23 42 3 14 -11 29 -16 33
-12 5 4 5 1 1 -5 -4 -8 -2 -13 5 -13 7 0 9 -3 6 -7 -4 -3 -19 4 -35 18 l-27
24 23 -26 c12 -14 19 -29 15 -33 -5 -4 -3 -6 2 -4 6 2 22 -8 35 -21 14 -13 20
-21 14 -18 -6 3 -11 0 -11 -8 0 -8 3 -12 7 -10 3 2 12 0 20 -6 10 -5 11 -9 3
-9 -7 0 -10 -7 -7 -15 4 -8 11 -12 17 -8 6 4 8 0 4 -9 -3 -10 1 -18 13 -21 14
-3 17 -11 13 -28 -4 -19 -3 -21 6 -9 9 13 11 13 11 -2 0 -10 5 -18 11 -18 5 0
8 4 5 9 -3 4 6 13 19 19 23 11 30 23 26 45 -1 5 3 6 9 2 5 -3 10 -2 10 2 0 5
-9 14 -20 21 -12 7 -17 18 -13 29 4 11 3 14 -5 9 -8 -5 -10 -1 -5 10 5 13 3
15 -8 9 -11 -7 -11 -5 1 10 8 10 10 16 4 12 -6 -3 -21 4 -33 17 -17 18 -19 25
-9 29 11 4 11 6 0 6 -8 1 -10 6 -6 14 5 7 0 6 -11 -3 -17 -14 -18 -14 -6 9 10
18 10 25 0 35 -9 8 -10 8 -5 -1 3 -6 1 -15 -5 -19 -7 -4 -9 -3 -5 4 3 5 0 13
-6 15 -10 4 -10 6 0 6 6 1 12 9 12 19 0 14 2 14 9 3 13 -20 42 -6 34 16 -3 10
-3 15 2 11 4 -4 14 0 22 10 14 16 14 16 9 0 -4 -15 -2 -16 14 -6 10 7 16 16
13 22 -3 5 -1 6 5 2 7 -4 12 -2 12 5 0 8 6 6 18 -4 10 -10 21 -14 25 -11 3 3
3 -3 0 -14 -3 -14 3 -25 20 -36 19 -13 23 -22 19 -44 -5 -25 -4 -26 13 -12 17
14 18 14 6 -7 -10 -19 -9 -23 4 -23 8 0 15 -5 15 -11 0 -5 -6 -7 -12 -3 -8 4
-10 3 -5 -2 5 -5 13 -10 18 -10 5 -1 12 -2 15 -3 4 0 0 -9 -7 -18 -12 -15 -12
-16 5 -10 16 6 17 5 6 -8 -11 -13 -10 -14 6 -8 17 6 17 5 6 -10 -12 -14 -11
-16 7 -12 11 2 24 -1 27 -7 5 -7 2 -8 -7 -3 -12 7 -12 5 -1 -6 11 -12 14 -12
22 1 8 12 10 12 10 1 0 -11 5 -10 21 5 17 16 22 16 31 4 8 -13 9 -12 5 2 -3 9
-1 19 6 22 7 3 1 3 -13 0 -14 -4 -22 -3 -18 1 4 4 3 17 -3 28 -8 14 -8 18 0
13 14 -9 14 -3 -1 29 -6 14 -17 25 -23 25 -7 0 -19 8 -26 17 -8 10 -9 14 -2
10 6 -4 14 -3 18 3 3 5 -3 10 -14 10 -12 0 -21 5 -21 11 0 5 4 7 10 4 6 -3 7
1 4 9 -3 9 -10 16 -16 16 -5 0 -6 5 -3 10 3 6 1 10 -5 10 -6 0 -9 4 -6 9 3 5
-6 16 -19 25 -14 9 -23 21 -20 26 8 13 -6 40 -21 40 -8 0 -14 5 -14 11 0 5 4
8 9 4 5 -3 13 0 17 6 4 7 3 9 -4 5 -6 -3 -13 3 -17 14 -4 11 -11 18 -16 15 -5
-4 -9 1 -9 9 0 9 -4 16 -10 16 -5 0 -10 8 -10 18 0 14 -2 14 -9 3 -7 -11 -10
-10 -14 5 -4 16 -5 17 -6 2z m139 -192 c0 -3 -4 -8 -10 -11 -5 -3 -10 -1 -10
4 0 6 5 11 10 11 6 0 10 -2 10 -4z"/>
<path d="M2070 3579 c0 -5 5 -7 10 -4 6 3 10 8 10 11 0 2 -4 4 -10 4 -5 0 -10
-5 -10 -11z"/>
<path d="M2630 3576 c0 -2 7 -7 16 -10 8 -3 12 -2 9 4 -6 10 -25 14 -25 6z"/>
<path d="M3415 3560 c3 -5 11 -10 16 -10 6 0 7 5 4 10 -3 6 -11 10 -16 10 -6
0 -7 -4 -4 -10z"/>
<path d="M3295 3520 c3 -5 8 -10 11 -10 2 0 4 5 4 10 0 6 -5 10 -11 10 -5 0
-7 -4 -4 -10z"/>
<path d="M3336 3462 c-3 -4 4 -9 15 -9 23 -2 25 3 4 10 -8 4 -16 3 -19 -1z"/>
<path d="M2743 3409 c-2 -23 3 -25 10 -4 4 8 3 16 -1 19 -4 3 -9 -4 -9 -15z"/>
<path d="M3215 3381 c-3 -5 -2 -12 3 -15 5 -3 9 1 9 9 0 17 -3 19 -12 6z"/>
<path d="M2740 3376 c0 -2 7 -7 16 -10 8 -3 12 -2 9 4 -6 10 -25 14 -25 6z"/>
<path d="M1925 3360 c-3 -5 -2 -10 4 -10 5 0 13 5 16 10 3 6 2 10 -4 10 -5 0
-13 -4 -16 -10z"/>
<path d="M3267 3279 c7 -7 15 -10 18 -7 3 3 -2 9 -12 12 -14 6 -15 5 -6 -5z"/>
<path d="M3276 3214 c-4 -9 -4 -19 -1 -22 3 -3 5 0 5 7 0 7 4 9 10 6 6 -3 7 1
4 9 -8 20 -10 20 -18 0z"/>
<path d="M3571 3177 c-6 -8 -8 -17 -4 -20 3 -4 1 -7 -4 -7 -6 0 -13 4 -15 9
-4 13 -26 18 -26 7 0 -16 -26 -25 -45 -14 -14 7 -17 7 -13 -1 8 -12 -28 -33
-40 -23 -5 4 -2 -1 5 -11 12 -15 12 -17 -2 -11 -12 4 -15 1 -12 -15 3 -15 0
-18 -13 -14 -15 6 -16 5 -2 -12 8 -10 10 -16 5 -13 -6 4 -17 -3 -24 -14 -11
-18 -11 -20 4 -14 14 5 16 4 7 -7 -7 -8 -8 -18 -4 -22 4 -5 -1 -5 -10 -2 -12
4 -15 2 -11 -10 3 -8 0 -18 -6 -23 -9 -5 -8 -9 4 -13 9 -4 13 -3 10 2 -3 5 -1
12 4 15 10 7 9 -9 -4 -36 -4 -10 -12 -18 -17 -18 -6 0 -5 8 3 18 11 14 11 15
-1 5 -7 -7 -15 -21 -16 -30 -1 -10 -5 -27 -9 -37 -6 -14 -5 -17 3 -12 7 4 12
3 12 -2 0 -6 -7 -12 -15 -16 -8 -3 -15 -11 -15 -18 0 -9 3 -8 10 2 8 13 10 12
10 -2 0 -10 -5 -18 -11 -18 -8 0 -7 -6 2 -17 13 -15 12 -15 -8 -5 -19 11 -21
9 -16 -11 3 -12 1 -18 -4 -12 -13 16 -35 17 -44 3 -7 -11 -9 -10 -9 1 0 7 -6
11 -14 8 -9 -4 -13 -1 -10 6 2 7 -6 17 -18 22 -13 6 -22 16 -20 23 1 7 -2 12
-7 12 -6 0 -8 9 -6 20 3 14 -2 20 -13 20 -15 0 -15 2 -2 10 13 9 13 10 0 11
-8 1 -19 1 -25 0 -5 -1 -2 5 8 12 21 17 22 27 2 27 -8 0 -15 5 -15 11 0 5 4 8
9 5 5 -4 8 2 6 11 -2 10 -4 21 -4 26 -1 4 -6 7 -12 7 -8 0 -7 -5 1 -15 11 -14
10 -14 -12 -6 -20 7 -28 5 -41 -9 -8 -10 -12 -22 -9 -26 4 -5 -2 -2 -12 6 -18
14 -19 14 -8 -7 8 -14 9 -24 2 -28 -6 -4 -4 -17 5 -35 8 -16 15 -36 15 -45 0
-8 5 -15 11 -15 8 0 8 -5 -1 -15 -10 -12 -8 -16 13 -24 19 -7 24 -15 20 -30
-3 -13 -1 -21 6 -21 7 0 9 5 6 10 -3 6 -4 10 -1 10 3 0 10 -10 17 -21 8 -15 8
-19 0 -15 -6 4 -11 2 -11 -3 0 -6 7 -11 16 -11 10 0 14 -5 10 -15 -5 -13 -2
-14 17 -4 20 11 21 11 9 -4 -11 -13 -10 -15 7 -10 13 3 21 1 21 -6 0 -7 -5 -9
-12 -5 -7 4 -8 3 -4 -5 6 -9 11 -9 23 0 12 11 14 10 11 -6 -1 -10 4 -20 12
-22 13 -4 13 -3 0 6 -13 9 -13 11 3 11 9 0 17 -5 17 -11 0 -8 4 -8 14 0 10 8
16 9 21 1 3 -5 11 -10 16 -10 6 0 7 6 3 13 -6 9 -3 8 9 -1 13 -12 18 -10 33 7
10 11 22 17 27 14 6 -4 8 1 3 12 -6 16 -4 16 11 4 11 -9 14 -10 9 -1 -4 7 -1
12 9 12 9 0 15 6 12 13 -2 6 3 18 12 24 13 11 14 14 2 22 -11 7 -9 10 8 16 18
5 19 9 9 28 -10 19 -9 20 4 10 12 -10 14 -10 13 5 0 9 -4 23 -9 30 -4 8 -1 12
11 13 11 0 13 3 5 6 -6 2 -9 10 -5 16 12 19 12 37 2 37 -6 0 -7 5 -4 10 5 8
12 7 23 -2 15 -12 16 -11 2 6 -19 25 -22 49 -5 42 18 -7 29 10 14 20 -8 5 -9
3 -4 -6 5 -9 4 -11 -4 -6 -14 9 -5 26 15 26 8 0 14 5 14 11 0 5 -4 7 -10 4 -5
-3 -10 -3 -10 0 0 6 63 35 77 35 4 0 -2 -6 -12 -14 -11 -8 -24 -12 -29 -9 -5
4 -6 1 -1 -6 5 -9 10 -10 18 -2 6 6 19 11 29 11 20 0 58 -34 58 -51 0 -5 6 -7
13 -3 9 5 9 4 0 -6 -10 -11 -9 -16 5 -27 9 -8 13 -12 7 -10 -5 3 -10 -5 -10
-18 0 -14 5 -21 13 -18 8 4 10 -1 5 -13 -6 -17 -5 -18 12 -4 15 12 17 12 10 1
-6 -11 -4 -13 11 -6 10 4 27 7 37 7 13 -1 17 4 13 14 -3 8 -2 12 3 9 5 -3 12
-1 16 5 3 5 1 10 -4 10 -6 0 -11 5 -11 11 0 5 4 8 8 5 4 -2 9 4 9 15 2 18 0
19 -14 7 -11 -8 -14 -8 -10 -1 4 6 3 15 -3 18 -8 5 -7 12 2 23 11 13 11 14 -1
7 -11 -6 -13 -4 -8 8 4 11 1 17 -9 17 -11 0 -14 6 -9 23 5 17 4 19 -4 7 -9
-13 -11 -12 -11 3 0 10 -4 15 -10 12 -6 -3 -7 1 -4 9 4 9 -1 18 -10 22 -9 3
-13 11 -9 18 4 6 0 5 -9 -2 -14 -11 -16 -10 -14 12 2 18 -1 23 -12 18 -10 -3
-13 -1 -8 6 10 16 -6 15 -23 0 -11 -10 -13 -10 -7 0 5 8 0 12 -12 12 -26 0
-34 11 -21 27 6 7 9 13 6 13 -2 0 -10 -6 -16 -13z m-195 -289 c4 -7 3 -8 -4
-4 -7 4 -12 2 -12 -5 0 -7 -3 -10 -6 -6 -6 5 3 27 11 27 2 0 7 -5 11 -12z"/>
<path d="M1473 3143 c4 -3 1 -13 -6 -22 -11 -14 -10 -14 5 -2 16 12 16 31 1
31 -4 0 -3 -3 0 -7z"/>
<path d="M1756 3042 c-3 -5 1 -9 9 -9 8 0 12 4 9 9 -3 4 -7 8 -9 8 -2 0 -6 -4
-9 -8z"/>
<path d="M1956 2947 c3 -10 9 -15 12 -12 3 3 0 11 -7 18 -10 9 -11 8 -5 -6z"/>
<path d="M2065 2941 c-3 -5 -2 -12 3 -15 5 -3 9 1 9 9 0 17 -3 19 -12 6z"/>
<path d="M2900 2926 c0 -8 4 -17 9 -20 5 -4 7 3 4 14 -6 23 -13 26 -13 6z"/>
<path d="M3030 2920 c0 -5 5 -10 11 -10 5 0 7 5 4 10 -3 6 -8 10 -11 10 -2 0
-4 -4 -4 -10z"/>
<path d="M3046 2847 c3 -10 9 -15 12 -12 3 3 0 11 -7 18 -10 9 -11 8 -5 -6z"/>
<path d="M3195 2810 c3 -5 8 -10 11 -10 2 0 4 5 4 10 0 6 -5 10 -11 10 -5 0
-7 -4 -4 -10z"/>
<path d="M3800 2752 c-13 -14 -12 -15 3 -9 28 11 19 0 -13 -17 -17 -8 -28 -11
-25 -6 7 11 -15 7 -35 -5 -8 -5 -18 -10 -22 -10 -3 0 -10 -4 -15 -9 -5 -5 -2
-6 6 -1 9 5 12 3 9 -5 -4 -13 -25 -21 -65 -24 -17 -1 -19 -4 -10 -15 10 -12 8
-12 -13 -1 -23 12 -24 12 -11 -4 8 -9 10 -16 5 -15 -21 4 -35 -2 -29 -11 4 -7
-2 -7 -19 0 -26 10 -43 -1 -31 -20 3 -6 -1 -7 -9 -4 -9 3 -13 11 -9 18 4 8 3
8 -6 0 -7 -6 -13 -20 -13 -30 -2 -15 -9 -19 -40 -18 -34 2 -37 0 -27 -17 5
-11 6 -19 2 -18 -20 3 -46 -2 -40 -8 4 -3 -2 -12 -13 -20 -16 -11 -18 -18 -9
-40 8 -21 7 -24 -4 -15 -11 9 -14 8 -14 -3 0 -8 4 -15 8 -15 13 0 18 -29 7
-36 -6 -4 -8 -3 -5 3 4 6 0 14 -8 17 -12 4 -13 2 -6 -13 6 -10 7 -22 3 -26 -4
-5 1 -5 11 -2 11 4 16 3 12 -3 -3 -6 -3 -15 1 -22 12 -19 11 -57 -1 -51 -5 4
-1 -4 9 -16 14 -15 16 -21 5 -18 -8 2 -11 2 -6 0 4 -3 5 -8 2 -13 -3 -4 4 -6
15 -3 12 3 20 0 20 -6 0 -7 -4 -9 -10 -6 -6 3 -7 -1 -4 -9 3 -9 10 -13 15 -10
13 8 11 -10 -3 -25 -11 -10 -10 -11 4 -6 12 5 20 1 25 -11 3 -11 11 -22 17
-26 8 -6 6 -12 -4 -19 -13 -9 -13 -10 1 -6 11 4 28 -8 49 -34 17 -22 35 -37
40 -34 5 3 15 -2 23 -10 18 -17 31 -20 22 -5 -3 6 -1 10 4 10 6 0 11 -7 11
-15 0 -8 4 -15 10 -15 5 0 6 8 3 18 -6 16 -6 16 10 0 9 -9 17 -25 18 -35 0
-16 1 -16 8 2 5 11 6 24 3 29 -3 5 0 6 7 2 6 -4 19 -2 28 6 9 7 14 8 10 2 -4
-7 1 -14 12 -17 14 -3 18 -1 14 9 -4 10 4 12 31 10 20 -2 33 0 30 5 -3 5 -11
6 -17 3 -7 -4 -8 -3 -4 2 5 5 13 10 18 10 5 1 14 2 20 3 5 0 7 7 3 14 -5 8 -3
8 9 -2 14 -11 18 -11 23 3 5 13 9 14 20 5 12 -10 13 -8 7 6 -5 14 -3 17 10 12
9 -3 19 -1 23 5 5 7 2 8 -6 3 -9 -5 -11 -4 -6 4 6 9 11 9 24 -1 13 -11 14 -11
7 1 -6 11 -4 13 8 8 9 -3 16 -3 16 1 -3 19 2 23 16 12 9 -7 18 -10 22 -6 3 3
1 6 -5 6 -7 0 -12 4 -12 10 0 6 9 6 26 -1 23 -8 25 -8 15 5 -10 12 -8 16 8 21
12 3 26 3 33 -1 10 -6 11 -5 1 8 -11 13 -8 15 22 13 30 -2 35 0 35 19 0 17 2
18 10 6 8 -13 10 -12 10 3 0 9 5 16 11 15 6 -2 14 3 17 11 3 9 0 11 -8 6 -9
-5 -11 -4 -6 4 6 9 11 9 22 0 19 -16 18 -4 -2 16 -12 11 -19 13 -24 5 -4 -6
-7 3 -7 20 0 16 5 30 10 30 6 0 7 3 4 6 -4 4 -13 1 -22 -6 -13 -11 -14 -10 -9
4 5 13 2 15 -12 9 -17 -6 -18 -5 -4 12 14 17 14 17 -5 8 -11 -6 -24 -13 -30
-15 -5 -1 -9 -6 -8 -9 1 -4 -7 -5 -17 -2 -12 3 -20 0 -20 -7 0 -8 -8 -10 -21
-7 -14 4 -23 -1 -29 -16 -5 -12 -9 -16 -9 -8 -1 12 -4 11 -13 -2 -18 -25 -58
-31 -58 -9 -1 9 -7 2 -15 -16 -8 -18 -19 -31 -24 -28 -10 6 -71 -22 -83 -39
-4 -5 -8 -6 -8 -2 0 5 -7 1 -16 -7 -8 -9 -20 -16 -27 -16 -6 0 -2 7 9 16 18
14 17 14 -6 2 -14 -7 -29 -11 -34 -10 -5 2 -6 -5 -2 -15 6 -17 5 -17 -8 1 -8
10 -19 15 -25 12 -5 -4 -12 -2 -16 4 -10 16 -25 2 -19 -18 5 -16 5 -16 -6 1
-12 19 -36 24 -24 5 4 -7 3 -8 -5 -4 -6 4 -9 12 -5 17 9 15 -15 38 -36 34 -14
-3 -16 1 -12 17 4 16 2 19 -8 13 -10 -6 -11 -4 -4 6 15 25 13 37 -7 32 -15 -4
-19 0 -19 21 0 19 -4 25 -12 21 -7 -4 -5 0 5 8 14 11 15 16 5 20 -11 4 -11 6
0 6 7 1 10 6 6 13 -5 8 -2 9 11 4 15 -5 16 -4 5 9 -12 15 -3 21 24 16 5 -1 3
6 -5 15 -10 13 -10 16 -1 10 15 -9 45 12 36 25 -5 9 -1 10 37 13 11 0 25 9 30
19 6 9 19 17 30 17 11 0 17 5 14 10 -3 6 -1 10 4 10 6 0 11 -5 11 -12 0 -6 7
-3 16 8 8 10 13 14 10 7 -4 -6 -2 -14 4 -18 5 -3 10 1 10 10 0 10 5 13 13 9 9
-6 9 -5 0 7 -10 13 -8 15 17 13 17 -1 30 3 30 8 0 6 -7 8 -15 5 -8 -4 -17 -3
-19 2 -8 12 27 10 43 -3 12 -9 14 -8 9 5 -4 9 -1 16 8 16 7 0 11 -5 8 -11 -3
-6 1 -3 9 6 8 10 18 14 22 10 5 -4 5 1 2 11 -4 10 -3 16 2 12 5 -3 12 -1 16 4
3 6 13 7 22 4 11 -4 14 -3 9 5 -5 8 -2 10 8 6 12 -4 16 0 16 16 0 13 -4 19
-11 14 -7 -4 -7 1 1 16 7 12 8 20 3 17 -5 -3 -15 3 -22 15 -7 11 -8 18 -3 14
5 -3 9 1 9 9 0 8 -4 12 -9 9 -13 -8 -49 6 -43 17 3 5 -1 6 -9 3 -9 -3 -13 -11
-10 -18 3 -6 -1 -4 -8 5 -12 15 -15 15 -28 1z m-50 -41 c0 -5 -7 -12 -16 -15
-14 -5 -15 -4 -4 9 14 17 20 19 20 6z m-185 -500 c3 -5 2 -12 -3 -15 -5 -3 -9
1 -9 9 0 17 3 19 12 6z m90 -33 c5 4 5 1 1 -6 -6 -10 -11 -10 -22 -1 -8 6 -14
14 -14 16 0 3 6 0 13 -6 8 -6 18 -7 22 -3z m-120 -98 c10 -11 16 -20 13 -20
-3 0 -13 9 -23 20 -10 11 -16 20 -13 20 3 0 13 -9 23 -20z"/>
<path d="M3870 2760 c0 -5 5 -10 11 -10 5 0 7 5 4 10 -3 6 -8 10 -11 10 -2 0
-4 -4 -4 -10z"/>
<path d="M1260 2739 c0 -5 5 -7 10 -4 6 3 10 8 10 11 0 2 -4 4 -10 4 -5 0 -10
-5 -10 -11z"/>
<path d="M1786 2637 c3 -10 9 -15 12 -12 3 3 0 11 -7 18 -10 9 -11 8 -5 -6z"/>
<path d="M2746 2582 c-3 -5 1 -9 9 -9 8 0 12 4 9 9 -3 4 -7 8 -9 8 -2 0 -6 -4
-9 -8z"/>
<path d="M1506 2373 c-6 -14 -5 -15 5 -6 7 7 10 15 7 18 -3 3 -9 -2 -12 -12z"/>
<path d="M1540 2380 c-8 -5 -12 -11 -10 -14 3 -2 14 2 24 10 22 15 10 19 -14
4z"/>
<path d="M4050 2375 c0 -7 30 -13 34 -7 3 4 -4 9 -15 9 -10 1 -19 0 -19 -2z"/>
<path d="M2600 2359 c0 -5 5 -7 10 -4 6 3 10 8 10 11 0 2 -4 4 -10 4 -5 0 -10
-5 -10 -11z"/>
<path d="M3357 2344 c7 -3 9 -13 6 -22 -4 -14 -3 -14 5 -2 12 16 7 30 -11 29
-9 0 -9 -2 0 -5z"/>
<path d="M3919 2293 c-13 -16 -12 -17 4 -4 9 7 17 15 17 17 0 8 -8 3 -21 -13z"/>
<path d="M3290 2226 c0 -2 7 -9 15 -16 13 -11 14 -10 9 4 -5 14 -24 23 -24 12z"/>
<path d="M4191 2092 c-6 -10 -7 -22 -3 -26 3 -4 -1 -4 -10 -1 -9 4 -19 1 -24
-6 -5 -8 -3 -10 6 -4 9 5 11 4 6 -3 -5 -8 -13 -9 -26 -2 -13 7 -19 6 -24 -5
-3 -8 -15 -15 -27 -15 -16 0 -20 -4 -15 -17 4 -10 4 -14 0 -10 -4 4 -14 1 -22
-6 -9 -6 -13 -7 -9 -1 3 6 0 11 -8 11 -8 0 -11 -5 -8 -10 4 -6 0 -8 -10 -4
-11 4 -25 -5 -43 -26 -14 -18 -23 -27 -20 -21 3 7 -1 14 -9 17 -9 4 -12 1 -9
-7 3 -7 -3 -19 -12 -27 -15 -12 -16 -12 -10 0 6 9 4 12 -5 9 -8 -3 -14 -11
-14 -18 0 -7 -7 -15 -15 -17 -13 -4 -13 -3 0 6 13 9 13 11 -3 11 -10 0 -20 -7
-24 -16 -6 -15 -8 -15 -20 2 -11 14 -14 15 -13 4 5 -34 1 -41 -19 -31 -15 8
-18 7 -17 -6 1 -19 -33 -26 -51 -11 -11 8 -12 7 -7 -7 5 -13 4 -16 -4 -11 -7
4 -12 2 -12 -3 0 -6 -9 -11 -20 -11 -14 0 -18 -5 -13 -17 6 -15 4 -16 -8 -6
-13 10 -16 10 -16 -2 0 -8 5 -15 10 -15 5 0 4 -6 -2 -14 -9 -10 -8 -16 3 -26
9 -6 20 -9 25 -5 7 4 8 -1 4 -11 -4 -12 -3 -15 5 -10 7 4 12 1 12 -7 0 -7 12
-19 27 -26 24 -11 25 -11 12 5 -13 16 -12 16 10 5 15 -8 21 -9 17 -2 -11 17 3
34 19 21 15 -13 41 13 30 31 -6 8 -2 8 13 0 14 -7 23 -8 27 -1 4 6 11 7 17 4
7 -5 8 -2 3 6 -6 10 -4 12 9 7 11 -5 15 -3 10 5 -5 8 -2 9 11 4 15 -5 16 -4 5
9 -11 13 -10 14 4 9 9 -4 16 -1 16 6 0 8 8 10 21 7 14 -4 19 -2 16 7 -6 16 25
17 36 2 5 -6 5 -1 2 12 -5 19 -2 22 19 22 14 0 32 10 41 23 l17 22 -7 -25 c-5
-19 -4 -21 4 -10 6 8 14 15 18 15 13 1 49 24 38 25 -6 0 -16 -5 -22 -11 -8 -8
-13 -8 -18 0 -3 6 -3 11 2 10 4 -1 21 3 37 10 16 6 38 13 50 15 11 2 20 9 18
16 -1 6 2 8 8 5 6 -4 9 -10 6 -13 -3 -3 1 -13 10 -23 12 -13 12 -19 3 -25 -8
-5 -10 -3 -4 6 6 9 4 11 -4 6 -7 -5 -9 -11 -6 -15 6 -6 11 -7 36 -10 8 -1 7
-7 -2 -18 -8 -9 -9 -14 -4 -11 15 8 49 -28 35 -37 -8 -5 -6 -13 7 -28 18 -21
18 -21 -1 -7 -12 9 -17 10 -12 3 12 -21 16 -54 5 -48 -5 4 -6 11 -3 17 5 7 2
8 -5 4 -7 -5 -10 -10 -7 -13 8 -8 -13 -43 -26 -43 -6 0 -5 7 3 18 12 15 12 16
-2 5 -9 -7 -19 -9 -24 -5 -4 4 -2 -4 5 -18 l13 -25 -22 19 c-22 20 -22 20 -15
0 6 -16 4 -16 -19 5 -15 14 -30 21 -34 18 -3 -4 -1 -7 5 -7 6 0 17 -10 23 -22
11 -22 11 -22 -7 -6 -11 9 -29 26 -41 37 -12 10 -24 16 -28 13 -3 -4 -3 2 1
12 5 14 4 17 -5 11 -10 -5 -11 -2 -6 14 5 17 3 20 -12 14 -15 -6 -16 -4 -5 9
10 13 10 18 1 24 -8 4 -9 3 -5 -4 9 -15 -6 -16 -21 -1 -8 8 -13 8 -17 0 -4 -6
-4 -11 0 -11 4 0 -1 -7 -12 -16 -10 -8 -13 -12 -5 -8 10 5 12 3 7 -5 -5 -7
-14 -10 -22 -7 -12 5 -12 2 -3 -17 11 -19 10 -20 -3 -9 -13 10 -15 8 -12 -13
2 -22 0 -24 -12 -14 -12 10 -13 9 -9 -4 4 -8 1 -18 -6 -23 -8 -5 -10 -3 -4 7
5 8 4 11 0 6 -14 -12 -17 -49 -3 -41 7 4 8 3 4 -5 -6 -8 -12 -9 -20 -2 -16 13
-27 4 -19 -15 3 -8 -1 -14 -11 -14 -9 0 -16 -5 -16 -11 0 -5 6 -7 13 -3 6 4
-3 -7 -21 -24 -19 -17 -31 -36 -28 -41 4 -5 2 -12 -3 -16 -5 -3 -8 -14 -6 -25
2 -12 0 -18 -5 -15 -6 3 -7 -1 -4 -9 3 -8 11 -13 18 -10 7 3 13 -2 13 -10 0
-8 -4 -13 -9 -10 -15 10 -8 -9 10 -23 9 -8 11 -12 5 -8 -7 3 -13 1 -13 -4 0
-15 13 -14 29 2 10 8 12 8 7 0 -4 -8 1 -11 14 -10 13 1 19 6 15 16 -5 11 -3
12 10 1 13 -11 14 -10 8 6 -6 17 -5 18 13 4 15 -11 16 -11 7 0 -15 16 -18 44
-4 36 5 -3 11 4 15 17 5 18 8 20 16 7 13 -20 13 -4 0 20 -9 17 -8 18 7 13 16
-6 17 -5 3 12 -10 13 -11 16 -2 11 21 -12 50 21 48 54 -2 23 1 27 11 18 11 -8
12 -7 7 6 -5 14 -3 15 20 6 15 -5 25 -6 22 -1 -5 8 2 8 33 2 2 -1 -2 -8 -9
-17 -11 -12 -11 -15 1 -12 8 2 13 -3 11 -10 -1 -8 2 -11 8 -7 6 3 8 11 5 16
-4 5 -4 9 -1 9 3 0 13 -12 21 -27 9 -16 14 -21 11 -12 -3 13 0 15 15 12 10 -3
17 -9 14 -12 -2 -4 2 -8 10 -8 8 0 12 4 9 9 -3 4 0 8 5 8 6 0 11 -6 11 -12 0
-10 2 -10 8 0 5 7 18 14 31 17 12 2 19 0 16 -5 -3 -5 0 -12 6 -16 8 -4 9 -3 5
4 -4 7 -2 12 4 12 6 0 8 5 4 13 -5 7 0 6 11 -3 11 -9 16 -10 11 -2 -6 11 5 17
27 13 7 -1 11 24 8 43 -1 5 5 3 14 -4 14 -11 16 -11 13 1 -2 8 3 13 10 11 8
-1 11 2 7 7 -3 6 -11 9 -18 7 -7 -1 -9 -1 -4 1 4 3 4 10 1 15 -5 7 -2 8 6 3
10 -6 12 -4 6 10 -5 14 -4 16 7 7 11 -9 13 -7 12 8 -1 11 -6 25 -12 31 -8 8
-8 20 -2 36 7 20 7 24 -5 20 -20 -8 -28 4 -13 21 8 10 8 13 1 9 -7 -4 -15 0
-18 9 -4 10 -2 13 7 8 6 -4 0 5 -15 20 -15 16 -25 32 -22 37 3 5 0 17 -6 26
-11 16 -11 16 -6 1 3 -10 1 -20 -3 -23 -5 -3 -8 9 -7 26 2 25 -4 35 -28 51
-28 17 -28 19 -6 13 24 -7 24 -6 6 7 -11 9 -16 20 -12 27 4 6 4 11 -1 10 -18
-3 -33 2 -33 11 0 5 8 7 18 4 9 -2 2 3 -15 12 -18 10 -33 22 -33 27 0 5 7 4
15 -3 13 -11 14 -10 9 4 -4 10 -12 15 -19 12 -7 -2 -17 0 -23 6 -7 7 -13 4
-21 -10z m-187 -117 c-4 -8 -11 -15 -16 -15 -6 0 -5 6 2 15 7 8 14 15 16 15 2
0 1 -7 -2 -15z m54 -200 c-3 -3 -9 2 -12 12 -6 14 -5 15 5 6 7 -7 10 -15 7
-18z m-24 -204 c3 -5 -1 -14 -8 -20 -10 -9 -16 -9 -21 -1 -4 6 -1 9 7 8 7 -2
12 3 11 10 -3 14 3 16 11 3z"/>
<path d="M970 2091 c0 -5 5 -13 10 -16 6 -3 10 -2 10 4 0 5 -4 13 -10 16 -5 3
-10 2 -10 -4z"/>
<path d="M1135 2080 c-3 -5 -1 -10 4 -10 6 0 11 5 11 10 0 6 -2 10 -4 10 -3 0
-8 -4 -11 -10z"/>
<path d="M1726 2077 c3 -10 9 -15 12 -12 3 3 0 11 -7 18 -10 9 -11 8 -5 -6z"/>
<path d="M1886 2077 c3 -10 9 -15 12 -12 3 3 0 11 -7 18 -10 9 -11 8 -5 -6z"/>
<path d="M2695 2070 c-3 -5 -1 -10 4 -10 6 0 11 5 11 10 0 6 -2 10 -4 10 -3 0
-8 -4 -11 -10z"/>
<path d="M2793 2065 c0 -8 4 -12 9 -9 4 3 8 9 8 15 0 5 -4 9 -8 9 -5 0 -9 -7
-9 -15z"/>
<path d="M3141 2071 c-8 -5 -9 -11 -3 -15 5 -3 12 1 16 9 6 17 6 18 -13 6z"/>
<path d="M3680 2020 c-12 -7 -10 -9 7 -7 12 0 19 5 17 9 -6 10 -6 10 -24 -2z"/>
<path d="M1979 1968 c-7 -23 -4 -35 7 -35 9 0 11 4 4 12 -5 7 -7 15 -3 18 3 4
3 7 0 7 -4 0 -7 -1 -8 -2z"/>
<path d="M3035 1961 c-3 -5 -2 -12 3 -15 5 -3 9 1 9 9 0 17 -3 19 -12 6z"/>
<path d="M1275 1948 c7 -17 -64 -21 -82 -6 -8 6 -16 8 -20 4 -3 -3 -1 -6 6 -6
7 0 9 -5 5 -12 -5 -7 -2 -8 7 -3 12 7 12 6 0 -6 -10 -11 -15 -11 -18 -1 -3 6
-11 12 -19 12 -9 0 -12 5 -9 10 3 6 1 10 -4 10 -6 0 -11 -5 -11 -11 0 -8 -5
-7 -15 1 -13 11 -14 10 -9 -4 4 -10 13 -15 20 -12 7 3 16 2 18 -3 3 -4 -13 -7
-34 -7 -21 0 -36 4 -34 8 3 5 10 5 16 2 7 -4 8 -2 4 5 -4 6 -12 9 -17 5 -5 -3
-16 -1 -24 6 -10 8 -15 8 -21 -1 -4 -7 -3 -9 4 -5 6 3 13 2 16 -3 4 -5 -2 -8
-11 -6 -10 2 -22 4 -26 4 -5 1 -5 7 -1 14 5 8 2 8 -9 -2 -14 -11 -17 -11 -17
0 0 12 -2 12 -9 0 -6 -9 -11 -10 -15 -2 -9 13 -26 5 -26 -12 0 -8 3 -8 9 1 7
11 9 11 14 0 6 -17 -24 -20 -35 -4 -6 8 -11 6 -18 -4 -5 -9 -10 -10 -10 -3 0
6 -8 10 -17 8 -10 -1 -24 2 -31 8 -7 5 -15 7 -19 3 -3 -3 -1 -6 6 -6 7 0 9 -5
6 -10 -4 -6 -11 -7 -17 -4 -8 5 -9 1 -4 -11 5 -15 4 -16 -8 -6 -12 10 -13 8
-9 -10 5 -18 3 -21 -10 -16 -11 4 -15 1 -12 -13 2 -11 -1 -23 -7 -26 -7 -5 -8
-2 -3 7 8 12 6 12 -8 0 -14 -11 -15 -16 -5 -29 11 -13 10 -15 -4 -9 -10 3 -20
1 -24 -5 -4 -6 -3 -8 3 -5 6 4 13 0 16 -7 4 -10 0 -14 -13 -11 -12 2 -17 -1
-14 -9 3 -8 -2 -20 -10 -29 -19 -18 -21 -31 -4 -21 7 5 8 3 4 -5 -5 -7 -14
-10 -22 -7 -10 4 -11 0 -3 -21 8 -23 8 -24 -6 -13 -13 11 -14 10 -9 -5 6 -14
4 -16 -7 -10 -11 7 -12 6 -2 -6 10 -12 10 -18 1 -27 -7 -7 -8 -12 -3 -12 15 0
-28 -40 -44 -40 -13 -1 -12 -4 4 -17 16 -12 17 -14 3 -10 -20 7 -43 -26 -32
-45 4 -7 3 -8 -4 -4 -11 6 -17 -13 -13 -37 1 -5 -8 -11 -19 -14 -11 -3 -20
-12 -20 -19 0 -8 -5 -14 -11 -14 -8 0 -7 -5 1 -15 11 -13 10 -14 -5 -8 -15 5
-17 3 -12 -12 10 -25 -11 -49 -30 -34 -11 9 -12 9 -8 -4 4 -8 1 -18 -5 -22 -8
-5 -6 -13 7 -28 10 -11 12 -17 6 -13 -8 4 -13 1 -13 -8 0 -9 6 -15 13 -13 6 1
11 -4 9 -11 -1 -8 2 -11 8 -7 6 3 8 11 5 16 -3 5 1 6 9 3 9 -3 13 -11 9 -17
-3 -6 -1 -7 6 -3 6 4 9 11 6 16 -3 5 -1 11 5 15 9 6 14 -8 11 -28 -1 -5 3 -6
9 -2 6 3 8 10 5 15 -3 4 2 7 11 6 8 -1 20 -9 25 -17 7 -12 9 -11 9 3 0 9 5 20
12 24 7 5 8 3 3 -6 -5 -9 -2 -10 13 -6 12 4 23 2 28 -5 5 -8 3 -9 -6 -4 -9 6
-11 4 -5 -4 5 -9 10 -10 18 -2 15 15 30 14 21 -1 -4 -7 4 -3 18 10 13 12 27
19 31 16 4 -4 13 -1 22 6 12 10 13 16 4 26 -9 11 -8 14 5 14 9 0 16 5 16 11 0
7 8 18 18 26 10 8 11 11 2 7 -12 -7 -13 -5 -3 8 7 8 11 18 8 21 -3 4 -2 5 1 3
13 -10 41 27 36 47 -4 16 -2 19 13 13 15 -5 16 -4 5 9 -10 12 -10 15 4 15 19
0 21 16 4 23 -7 3 -2 6 12 6 18 1 21 4 12 10 -11 7 -11 11 2 23 8 9 12 19 8
24 -4 5 2 2 12 -6 18 -14 19 -14 6 10 -12 23 -12 24 4 11 14 -12 16 -12 10 4
-5 13 -4 16 4 11 8 -4 10 -2 6 7 -3 8 2 17 12 21 14 5 14 9 3 23 -10 12 -10
14 -1 9 6 -4 12 -3 12 2 0 21 116 36 153 19 10 -5 17 -4 17 3 0 6 12 3 28 -7
19 -13 24 -14 15 -3 -10 13 -1 15 63 15 59 0 74 -3 74 -15 1 -13 2 -13 10 0 9
16 97 19 133 5 10 -4 17 -3 17 4 0 11 29 9 63 -4 9 -4 17 -3 17 2 0 5 15 9 34
9 19 -1 32 -4 30 -8 -2 -4 0 -9 6 -13 5 -3 10 2 10 11 0 14 3 15 12 6 8 -8 17
-8 31 -1 14 8 18 8 13 0 -8 -13 0 -13 29 -1 14 5 26 2 39 -9 18 -15 19 -15 13
2 -4 11 -3 16 4 12 6 -4 27 -7 47 -7 20 0 43 -5 50 -10 9 -8 11 -7 6 7 -5 13
-4 16 4 11 7 -4 31 -7 55 -8 23 0 48 -5 56 -12 12 -9 12 -7 1 14 -12 24 -12
24 6 9 23 -19 58 -33 49 -19 -8 13 97 10 114 -3 12 -10 14 -9 9 3 -4 11 1 15
17 15 13 0 21 -3 19 -6 -2 -3 19 -4 46 -1 34 3 55 0 67 -9 9 -8 14 -9 10 -3
-4 7 3 14 18 16 13 3 22 1 19 -3 -3 -5 0 -9 5 -9 6 0 11 6 12 13 0 6 4 3 9 -8
5 -11 9 -15 9 -9 1 19 38 23 66 8 14 -7 23 -9 20 -5 -2 5 6 11 20 13 13 3 22
2 20 -2 -3 -4 7 -10 20 -13 14 -2 28 0 32 6 4 6 1 7 -7 2 -9 -6 -11 -4 -5 4 5
9 10 10 18 2 15 -15 30 -14 21 2 -4 6 3 3 15 -7 22 -20 22 -20 15 0 -7 16 -6
17 8 6 13 -10 17 -10 21 0 3 7 6 4 6 -7 1 -17 3 -17 11 -5 8 12 13 13 29 3 12
-8 22 -9 26 -3 3 5 13 6 22 3 11 -5 14 -3 8 6 -6 10 -3 11 12 2 11 -6 23 -7
27 -4 10 10 46 11 40 1 -7 -11 3 -10 28 3 12 6 18 7 14 1 -7 -12 13 -21 32
-15 6 3 9 10 5 16 -4 7 6 4 21 -7 16 -10 25 -13 22 -7 -4 6 -1 11 8 11 8 0 18
-4 21 -10 4 -6 16 -3 33 8 14 9 23 12 19 6 -4 -7 -1 -14 6 -16 19 -8 38 2 31
15 -5 8 -2 8 7 0 7 -7 17 -13 22 -13 4 0 5 6 2 13 -4 6 0 4 8 -6 11 -13 16
-15 20 -5 3 10 9 10 23 2 23 -13 47 -7 37 9 -4 7 5 4 19 -5 17 -11 29 -14 33
-8 3 6 11 10 16 10 6 0 7 -5 3 -12 -5 -7 -2 -9 8 -5 22 8 30 -3 15 -21 -10
-13 -9 -15 5 -9 13 4 15 2 11 -10 -4 -11 -2 -14 5 -9 16 10 15 -6 0 -23 -10
-11 -10 -13 0 -7 6 4 12 2 12 -4 0 -7 6 -10 14 -7 10 4 12 0 9 -14 -3 -10 0
-19 6 -19 6 0 10 -6 9 -12 -2 -7 3 -12 11 -10 12 3 12 1 1 -15 -8 -10 -10 -15
-6 -11 13 11 46 -31 39 -49 -4 -9 -2 -14 3 -11 5 3 18 -4 28 -15 17 -18 17
-20 2 -14 -12 5 -16 3 -13 -5 2 -7 10 -12 16 -10 7 1 10 -2 7 -7 -4 -5 0 -12
6 -14 10 -4 10 -6 1 -6 -7 -1 -13 -6 -13 -11 0 -6 3 -9 8 -9 27 5 34 -1 21
-18 -10 -11 -10 -14 -1 -9 7 4 12 2 12 -4 0 -6 5 -8 13 -4 7 5 7 1 -3 -12 -8
-10 -10 -16 -6 -12 5 4 17 -2 27 -14 15 -16 16 -24 7 -35 -6 -8 -7 -13 -2 -12
21 4 30 -2 32 -21 1 -11 2 -27 3 -36 1 -9 11 -19 21 -22 10 -2 18 -11 18 -19
0 -8 -4 -12 -9 -9 -4 3 -7 -6 -5 -19 1 -14 -2 -23 -7 -19 -5 3 -7 10 -3 15 3
5 2 9 -3 8 -4 -1 -10 0 -13 1 -23 9 -38 6 -33 -6 3 -8 0 -14 -6 -14 -6 0 -11
4 -11 8 0 4 -9 8 -19 9 -14 1 -18 -3 -15 -15 5 -15 4 -15 -6 1 -13 20 -31 23
-26 5 1 -7 1 -9 -2 -5 -2 4 -11 2 -20 -5 -13 -11 -14 -10 -4 7 9 18 7 21 -11
22 -12 0 -17 -1 -10 -4 7 -2 9 -11 6 -20 -5 -12 -9 -11 -19 8 -10 18 -13 20
-14 7 0 -9 -5 -20 -12 -24 -6 -4 -8 -3 -5 2 3 6 2 16 -4 24 -7 12 -9 11 -9 -5
0 -14 -3 -16 -8 -7 -5 7 -18 14 -30 17 -15 3 -19 0 -15 -12 4 -10 8 -11 13 -3
5 8 9 7 13 -3 6 -15 -15 -18 -29 -4 -4 4 -19 0 -33 -9 l-26 -15 23 20 c12 11
18 22 13 25 -5 4 -12 0 -14 -6 -4 -10 -8 -9 -17 2 -10 13 -11 13 -6 -2 3 -10
0 -20 -6 -24 -7 -4 -8 -3 -4 4 4 7 2 12 -3 12 -6 0 -11 -6 -11 -12 0 -9 -3
-10 -8 -2 -4 6 -15 10 -25 8 -10 -1 -21 4 -24 13 -5 12 -7 12 -14 1 -6 -10
-12 -9 -24 7 -16 20 -16 19 -5 -2 12 -26 5 -30 -16 -8 -9 8 -20 15 -27 15 -6
0 -2 -7 9 -16 19 -15 18 -15 -2 -5 -11 5 -27 17 -34 26 -11 13 -10 14 5 9 15
-6 15 -4 4 14 -7 11 -17 18 -21 16 -4 -3 -8 3 -8 13 0 10 -9 24 -20 31 -12 7
-18 17 -15 22 3 5 -4 19 -16 31 -16 16 -18 21 -6 16 9 -3 17 -2 17 3 0 6 -9
10 -20 10 -11 0 -21 5 -21 10 -3 20 -4 25 -12 38 -5 6 -5 17 -1 24 5 8 2 9
-10 5 -10 -4 -15 -3 -11 3 3 6 1 10 -5 10 -6 0 -8 5 -5 10 3 6 1 10 -4 10 -6
0 -11 5 -11 11 0 5 5 7 12 3 7 -4 8 -3 4 4 -4 7 -14 12 -22 12 -8 0 -14 8 -15
18 0 9 -3 12 -5 5 -3 -7 -11 -10 -18 -7 -7 3 -25 0 -40 -6 -24 -9 -27 -8 -23
4 4 10 1 13 -8 9 -8 -3 -13 -9 -10 -13 3 -5 0 -12 -6 -16 -7 -4 -9 -3 -5 4 3
6 1 14 -6 19 -21 12 -37 12 -32 -1 3 -7 -2 -13 -10 -13 -8 0 -13 4 -10 9 3 4
-4 8 -16 8 -12 0 -19 -4 -16 -8 3 -5 -1 -9 -9 -9 -8 0 -11 5 -8 10 4 7 -1 8
-13 3 -43 -18 -48 -18 -29 -3 20 16 20 16 -2 10 -13 -3 -23 -10 -23 -16 0 -6
-7 -2 -15 9 -10 13 -13 14 -10 3 4 -10 0 -16 -9 -16 -8 0 -13 4 -10 9 3 4 -4
8 -16 8 -12 0 -19 -4 -16 -8 3 -5 -1 -9 -9 -9 -8 0 -12 4 -9 8 6 10 -78 6 -95
-5 -11 -7 -13 -5 -8 7 4 11 2 14 -8 10 -8 -3 -13 -9 -10 -13 3 -5 0 -12 -6
-16 -7 -4 -9 -3 -5 4 3 6 1 14 -6 19 -21 12 -37 12 -32 -1 3 -7 -2 -13 -10
-13 -8 0 -13 4 -10 9 3 4 -4 8 -16 8 -12 0 -19 -4 -16 -8 3 -5 -1 -9 -9 -9 -8
0 -11 5 -8 10 4 6 -1 8 -11 4 -10 -4 -20 -7 -22 -7 -3 0 -2 -4 1 -10 3 -6 -1
-7 -10 -4 -14 6 -14 8 2 20 17 13 17 14 -2 7 -11 -3 -23 -11 -27 -17 -5 -7 -8
-7 -8 2 0 8 -5 10 -12 5 -19 -11 -48 -14 -48 -4 0 5 -7 12 -16 15 -13 5 -14 3
-6 -6 8 -10 4 -13 -14 -14 -20 -2 -23 1 -13 12 10 12 9 13 -5 8 -9 -3 -16 -11
-16 -17 0 -6 -7 -2 -15 9 -10 12 -14 14 -13 5 2 -11 -8 -15 -35 -16 -26 -1
-36 3 -33 12 3 7 -1 10 -9 6 -8 -3 -13 -8 -11 -12 2 -3 -18 -7 -45 -7 -27 0
-49 4 -49 9 0 5 -8 3 -17 -4 -9 -8 -14 -9 -10 -3 4 7 -4 14 -20 17 -23 4 -25
3 -11 -7 13 -9 5 -12 -43 -12 -32 0 -59 4 -59 9 0 5 -8 3 -17 -4 -9 -8 -14 -9
-10 -3 4 7 -4 14 -20 17 -24 4 -25 3 -11 -7 15 -11 14 -13 -12 -13 -24 0 -27
3 -18 14 8 11 7 12 -6 7 -9 -3 -16 -11 -16 -17 0 -6 -7 -2 -16 9 -8 10 -13 14
-10 7 4 -6 2 -14 -4 -18 -5 -3 -10 -1 -10 5 0 7 -6 8 -19 0 -29 -15 -38 -12
-15 5 18 14 18 14 -3 8 -13 -3 -23 -10 -23 -16 0 -6 -7 -2 -15 9 -15 18 -15
18 -8 0 5 -15 3 -17 -8 -11 -11 7 -11 5 1 -10 9 -11 10 -16 3 -11 -8 4 -13 2
-13 -4 0 -6 -4 -8 -10 -5 -6 4 -7 -1 -3 -11 5 -13 2 -15 -15 -10 -17 6 -21 4
-16 -8 3 -9 10 -13 16 -10 5 3 4 -3 -3 -14 -7 -12 -17 -18 -22 -15 -5 3 -4 -4
3 -17 11 -20 10 -21 -10 -10 -20 11 -21 10 -10 -10 10 -18 9 -21 -1 -15 -9 6
-10 3 -5 -10 5 -14 4 -15 -7 -7 -10 8 -13 6 -14 -9 -1 -12 2 -17 10 -12 7 3 3
-3 -7 -15 -21 -24 -32 -29 -20 -10 4 6 3 8 -4 4 -6 -3 -9 -15 -7 -26 2 -12 1
-19 -3 -17 -4 2 -15 -4 -24 -15 -18 -18 -10 -26 8 -8 6 6 10 3 10 -9 0 -12 -5
-17 -15 -13 -10 4 -12 1 -6 -9 7 -11 5 -11 -10 1 -11 9 -16 10 -11 3 4 -8 1
-13 -8 -13 -9 0 -16 -5 -16 -11 0 -5 6 -7 13 -3 9 5 9 3 -1 -7 -11 -12 -14
-12 -21 0 -7 11 -10 10 -14 -5 -4 -16 -5 -17 -6 -1 -1 22 -10 22 -27 0 -13
-17 -14 -17 -8 0 3 9 1 17 -4 17 -6 0 -13 -8 -15 -17 -4 -16 -5 -16 -6 1 -1
19 -1 19 -23 0 -12 -10 -18 -13 -14 -6 10 17 -4 15 -28 -5 -20 -17 -20 -17 -7
0 10 12 10 17 2 17 -7 0 -9 5 -5 12 4 7 3 8 -5 4 -6 -4 -9 -12 -6 -17 4 -5 2
-9 -4 -9 -5 0 -11 5 -13 10 -2 6 -13 12 -25 14 -16 3 -20 1 -16 -10 7 -20 -7
-18 -24 4 -8 9 -12 11 -8 5 4 -8 0 -13 -9 -13 -9 0 -16 5 -16 12 0 6 -3 8 -7
4 -5 -4 1 -14 11 -22 23 -16 13 -19 -15 -3 -11 5 -17 14 -14 19 3 5 1 11 -4
15 -6 3 -8 -3 -6 -15 5 -24 -10 -27 -23 -4 -8 15 -10 15 -15 0 -4 -9 -1 -16 5
-16 6 0 9 -2 6 -5 -3 -3 -13 -3 -22 1 -14 5 -14 9 -4 23 12 15 11 15 -7 0 -11
-9 -29 -19 -40 -23 -14 -5 -11 1 10 19 l30 26 -35 -21 c-40 -23 -64 -27 -36
-5 18 13 18 14 -2 12 -11 0 -18 -5 -16 -9 3 -4 0 -8 -7 -8 -8 0 -8 -5 2 -17
11 -15 11 -16 -1 -6 -8 7 -23 13 -33 13 -14 0 -17 5 -12 18 4 12 1 11 -15 -6
-18 -19 -40 -22 -40 -6 0 3 4 3 9 -1 5 -3 12 -1 16 4 3 6 -3 8 -15 6 -11 -2
-20 2 -20 8 0 7 -4 6 -10 -3 -5 -8 -10 -11 -10 -6 0 4 -8 -2 -18 -14 -14 -18
-19 -19 -19 -7 0 9 4 14 9 11 4 -3 8 -1 8 4 0 6 -11 9 -24 8 -18 -1 -22 -4
-14 -14 8 -9 7 -11 -6 -6 -9 3 -16 9 -16 13 0 4 -7 8 -15 8 -10 0 -12 -4 -5
-12 7 -8 4 -11 -10 -10 -11 1 -22 4 -26 7 -3 4 -12 4 -20 1 -10 -4 -13 0 -8
13 3 12 0 10 -9 -5 -12 -20 -15 -21 -20 -7 -4 9 -12 16 -18 16 -8 0 -8 -4 1
-15 7 -9 10 -18 6 -22 -3 -3 -6 -1 -6 5 0 7 -5 12 -11 12 -5 0 -8 -4 -5 -8 7
-12 -26 -11 -44 1 -12 9 -13 9 -3 -3 10 -11 10 -17 0 -29 -10 -12 -9 -13 3 -7
9 4 8 2 -2 -7 -10 -8 -15 -17 -11 -20 3 -4 0 -7 -8 -7 -11 0 -11 -2 1 -10 12
-8 10 -10 -10 -10 -20 0 -22 -2 -10 -10 13 -8 13 -10 -2 -10 -9 0 -20 -5 -24
-12 -4 -6 -3 -8 4 -4 6 4 10 -1 9 -13 -1 -14 -5 -17 -13 -10 -8 7 -10 2 -6
-16 2 -15 0 -25 -7 -25 -7 0 -9 4 -6 10 3 5 2 10 -3 10 -17 0 -22 -13 -9 -28
9 -13 9 -14 0 -8 -8 4 -13 1 -13 -9 0 -10 5 -14 13 -9 10 6 10 4 0 -7 -17 -18
-16 -29 3 -29 9 0 12 5 8 13 -6 9 -4 9 7 1 21 -17 1149 -18 1150 -1 1 7 1 22
2 34 0 12 4 20 8 17 5 -3 10 2 10 10 3 37 5 41 22 40 9 -1 18 4 18 12 5 56 16
84 31 84 6 0 4 -8 -3 -17 -13 -16 -12 -17 3 -4 10 7 16 17 13 21 -3 5 5 16 17
26 13 9 16 14 7 11 -9 -3 -16 1 -16 9 0 7 4 11 9 8 4 -3 8 2 8 10 0 9 5 16 11
16 5 0 7 -5 3 -12 -4 -6 -3 -8 4 -4 6 3 9 15 7 26 -2 11 0 20 6 20 5 0 8 5 6
11 -1 6 4 14 12 17 9 3 11 0 7 -9 -4 -8 2 -3 14 11 17 21 20 22 18 6 -2 -12 4
-20 15 -21 9 -2 15 0 13 4 -3 4 -1 13 5 21 6 10 9 11 9 3 0 -7 7 -13 16 -13 8
0 12 4 9 10 -4 6 1 7 11 3 13 -5 15 -3 9 8 -8 12 -6 12 8 1 9 -8 21 -11 26 -8
5 4 12 2 15 -3 4 -5 -5 -8 -19 -6 -14 1 -28 -3 -32 -9 -3 -6 -3 -8 2 -4 4 4
14 3 22 -3 9 -9 13 -8 13 0 0 6 6 10 13 8 7 -1 11 7 10 18 -1 19 -1 19 11 3
14 -19 42 -26 31 -8 -4 6 1 7 11 3 13 -5 15 -3 9 8 -8 12 -6 12 8 1 9 -8 21
-11 26 -8 5 4 12 2 15 -3 4 -5 -5 -8 -19 -6 -14 1 -28 -3 -32 -9 -3 -6 -3 -8
2 -4 4 4 14 3 22 -3 9 -9 13 -8 13 0 0 6 6 10 13 8 7 -1 11 7 10 18 -1 19 -1
19 11 3 14 -19 42 -26 31 -8 -4 6 1 7 11 3 13 -5 15 -3 9 8 -8 12 -6 12 8 1 9
-8 21 -11 26 -8 5 4 12 2 15 -3 4 -5 -5 -8 -19 -6 -14 1 -28 -3 -32 -9 -3 -6
-3 -8 2 -4 4 4 14 3 22 -3 9 -9 13 -8 13 0 0 6 6 10 13 8 7 -1 11 7 10 18 -1
19 -1 19 11 3 14 -19 42 -26 31 -8 -4 6 1 7 11 3 13 -5 15 -3 9 8 -8 12 -6 12
8 1 9 -8 21 -11 26 -8 5 4 12 2 15 -3 4 -5 -5 -8 -19 -6 -14 1 -28 -3 -32 -9
-3 -6 -3 -8 2 -4 4 4 14 3 22 -3 9 -9 13 -8 13 0 0 6 6 10 13 8 7 -1 11 7 10
18 -1 19 -1 19 11 3 14 -19 42 -26 31 -8 -4 6 1 7 11 3 13 -5 15 -3 9 8 -8 12
-6 12 8 1 9 -8 21 -11 26 -8 5 4 12 2 15 -3 4 -5 -5 -8 -19 -6 -14 1 -28 -3
-32 -9 -3 -6 -3 -8 2 -4 4 4 14 3 22 -3 9 -9 13 -8 13 0 0 6 6 10 13 8 7 -1
11 7 10 18 -1 19 -1 19 11 3 14 -19 42 -26 31 -8 -4 6 1 7 11 3 13 -5 15 -3 9
8 -8 12 -6 12 8 1 9 -8 21 -11 26 -8 5 4 12 2 15 -3 4 -5 -5 -8 -19 -6 -14 1
-28 -3 -32 -9 -3 -6 -3 -8 2 -4 4 4 14 3 22 -3 9 -9 13 -8 13 0 0 6 6 10 13 8
7 -1 11 7 10 18 -1 19 -1 19 11 3 14 -19 42 -26 31 -8 -4 6 1 7 11 3 13 -5 15
-3 9 8 -7 11 -6 12 6 2 8 -6 24 -10 34 -9 11 2 26 -1 32 -6 8 -7 23 -7 42 0
20 7 32 7 40 -1 9 -9 17 -8 33 2 19 12 20 11 14 -5 -4 -10 -4 -15 0 -11 4 4
13 2 21 -4 9 -8 13 -8 13 -1 0 6 9 9 20 7 13 -2 18 0 14 7 -4 5 4 4 17 -3 13
-7 31 -12 39 -10 10 2 8 -3 -5 -13 -19 -15 -19 -15 -1 -16 15 0 16 -3 6 -15
-7 -9 -10 -18 -6 -22 3 -3 6 -1 6 5 0 7 8 12 18 12 9 0 13 -4 7 -8 -5 -4 -11
-15 -11 -25 -2 -13 1 -15 10 -7 18 14 28 0 13 -18 -9 -13 -9 -14 1 -8 6 4 12
2 12 -3 0 -23 2 -26 23 -39 22 -13 22 -13 -3 -7 -24 6 -24 5 3 -10 31 -18 36
-27 10 -19 -10 3 -8 0 5 -8 12 -8 19 -18 14 -23 -4 -6 -5 -9 -3 -8 2 2 12 -7
22 -19 12 -13 19 -16 19 -8 0 7 3 10 6 7 4 -4 1 -13 -6 -22 -10 -12 -10 -15 0
-15 9 0 10 -3 1 -14 -28 -34 5 -36 592 -35 526 0 575 1 570 16 -4 10 -2 14 5
9 18 -11 25 15 8 32 -10 11 -16 12 -16 4 0 -7 5 -12 10 -12 6 0 10 -5 10 -11
0 -8 -4 -8 -14 0 -8 7 -13 27 -12 51 2 39 -7 52 -18 28 -3 -7 -4 -1 -2 15 2
15 -1 30 -7 34 -6 3 -7 1 -3 -5 4 -7 4 -12 0 -12 -11 0 -33 34 -34 52 0 27
-22 68 -36 68 -7 0 -16 5 -20 12 -5 8 -2 9 10 5 14 -5 15 -3 6 13 -5 10 -16
22 -23 26 -8 5 -7 2 2 -9 7 -9 11 -17 8 -17 -3 0 -15 13 -27 30 -19 27 -19 29
-3 24 16 -5 16 -4 -2 11 -17 14 -18 17 -5 25 8 5 10 10 4 10 -5 0 -16 -6 -23
-12 -8 -8 -11 -8 -8 -2 4 7 0 17 -8 24 -16 14 -21 35 -6 25 11 -6 6 34 -5 44
-4 3 -4 -2 -1 -11 4 -12 1 -18 -8 -18 -8 0 -14 3 -14 8 1 4 1 18 0 32 -1 18
-4 21 -10 12 -6 -10 -10 -9 -14 7 -3 13 -1 19 5 15 6 -4 5 3 -1 15 -7 12 -9
27 -5 33 5 7 3 8 -5 4 -7 -5 -10 -15 -6 -25 5 -13 4 -14 -7 -3 -13 13 -14 17
-17 47 0 8 -8 15 -16 15 -8 0 -15 4 -15 10 0 5 8 7 18 4 16 -5 16 -5 -1 6 -9
6 -14 16 -11 22 5 7 1 9 -9 5 -9 -3 -19 -2 -22 3 -4 6 -1 10 4 10 6 0 11 5 11
11 0 5 -4 7 -10 4 -9 -5 -15 24 -11 48 1 5 -3 6 -9 2 -6 -3 -7 -11 -4 -17 4
-7 2 -8 -5 -4 -6 4 -9 12 -6 17 4 5 1 9 -4 9 -6 0 -11 9 -11 21 0 11 -4 17
-10 14 -6 -4 -7 1 -3 11 4 12 3 15 -5 10 -8 -5 -10 -1 -5 10 5 14 3 16 -11 11
-9 -4 -15 -3 -11 2 3 5 1 12 -4 15 -5 4 -8 17 -6 31 2 22 -1 25 -19 19 -21 -6
-21 -6 -1 10 14 11 15 15 5 14 -9 -2 -14 4 -13 15 0 12 -4 16 -12 13 -9 -3
-12 2 -10 15 3 16 0 19 -18 14 -17 -5 -19 -4 -7 4 13 9 13 12 1 20 -8 5 -11
16 -7 26 5 13 2 16 -9 11 -9 -3 -13 -2 -10 4 3 6 -1 13 -10 16 -13 5 -13 9 -3
22 10 12 10 14 1 8 -8 -4 -13 -2 -13 4 0 6 -5 8 -10 5 -6 -4 -9 -1 -8 7 2 7
-3 12 -10 10 -8 -1 -11 2 -8 7 18 28 -28 52 -51 26 -5 -4 -1 -4 7 0 13 8 13 7
1 -9 -10 -12 -17 -14 -25 -6 -14 14 -29 13 -20 -2 6 -10 4 -10 -7 0 -7 6 -23
12 -36 12 -12 0 -26 7 -31 16 -8 15 -10 15 -15 0 -4 -9 -3 -15 1 -13 4 1 8 -1
10 -5 5 -18 1 -20 -15 -7 -9 8 -18 13 -20 12 -10 -8 -23 -1 -18 10 4 6 -2 1
-14 -13 l-20 -25 6 25 c5 24 5 25 -10 5 -9 -11 -17 -16 -17 -11 0 5 -8 2 -17
-5 -11 -10 -14 -10 -9 -1 4 7 1 12 -8 12 -9 0 -16 -5 -16 -12 0 -9 -3 -9 -12
0 -7 7 -40 12 -79 12 -37 0 -71 5 -74 10 -4 6 -11 8 -16 4 -5 -3 -7 -10 -3
-15 3 -5 10 -7 15 -4 5 4 9 1 9 -4 0 -18 -18 -12 -34 10 -14 21 -36 19 -36 -4
0 -8 3 -8 9 1 7 11 9 11 14 -1 4 -10 0 -14 -11 -13 -9 2 -17 7 -19 12 -2 6
-19 8 -38 6 -23 -3 -45 2 -63 14 -24 15 -25 15 -13 1 12 -16 8 -17 -57 -17
-39 0 -72 -3 -75 -7 -2 -5 -2 -3 -1 4 2 7 -1 15 -6 18 -6 4 -10 -4 -10 -17 0
-18 -2 -20 -9 -8 -6 8 -7 18 -4 24 3 5 1 6 -6 2 -6 -4 -9 -11 -6 -16 3 -5 1
-11 -4 -14 -5 -4 -13 -1 -17 5 -4 8 -9 7 -15 -2 -6 -10 -9 -11 -9 -1 0 7 -13
12 -33 12 -18 0 -42 6 -53 14 -17 13 -21 13 -21 1 0 -8 4 -12 9 -9 4 3 5 -2 1
-11 -4 -12 -8 -13 -13 -5 -8 12 -77 10 -98 -4 -6 -3 -13 -3 -16 2 -3 5 1 9 9
10 8 1 22 3 30 4 8 1 15 5 15 9 0 10 -41 6 -60 -6 -8 -5 -37 -9 -65 -8 -27 0
-58 -3 -67 -8 -9 -5 -19 -5 -22 -1 -3 5 1 9 9 10 8 1 22 3 30 4 8 1 15 5 15 9
0 9 -47 5 -57 -4 -10 -11 -35 -8 -28 2 3 5 1 12 -4 16 -6 3 -8 -2 -7 -12 3
-15 -3 -18 -38 -17 -22 1 -49 -2 -58 -7 -9 -5 -19 -5 -22 -1 -3 5 1 9 9 10 8
1 22 3 30 4 8 1 15 5 15 9 0 11 -46 5 -62 -8 -7 -6 -22 -9 -33 -7 -11 3 -39 5
-62 6 -23 1 -39 6 -36 12 3 5 1 6 -6 2 -6 -4 -9 -11 -6 -15 2 -5 -10 -7 -28
-6 -18 1 -40 -5 -50 -14 -16 -13 -17 -13 -12 1 5 12 -1 16 -22 16 -15 0 -34
-5 -40 -10 -9 -7 -15 -6 -19 5 -6 17 -28 17 -45 0 -11 -11 -41 -2 -59 17 -9
10 -35 5 -35 -7 0 -6 -4 -15 -9 -20 -5 -5 -6 -3 -2 5 4 6 2 12 -4 12 -6 0 -9
4 -6 8 3 5 -1 9 -9 9 -10 0 -12 -4 -5 -12 8 -9 6 -14 -5 -19 -9 -3 -13 -2 -10
3 3 5 1 12 -5 16 -9 6 -15 -9 -10 -30 1 -5 -8 -1 -20 10 -27 24 -46 27 -61 9
-9 -11 -15 -11 -25 -3 -11 9 -18 8 -28 0 -11 -9 -16 -9 -22 0 -5 8 -3 10 7 4
8 -4 6 0 -3 11 -14 15 -20 16 -30 5 -11 -10 -10 -11 5 -6 22 9 22 3 -2 -17
-17 -14 -20 -14 -25 -2 -4 9 -2 12 5 8 8 -4 7 0 0 15 -13 23 -23 29 -16 9z
m331 -41 c6 -9 5 -9 -8 0 -8 7 -17 10 -20 7 -3 -2 -8 2 -12 11 -4 13 -2 14 14
5 10 -5 22 -16 26 -23z m1839 23 c3 -5 1 -10 -4 -10 -6 0 -11 5 -11 10 0 6 2
10 4 10 3 0 8 -4 11 -10z m-2005 -15 c7 -9 8 -15 2 -15 -5 0 -12 7 -16 15 -3
8 -4 15 -2 15 2 0 9 -7 16 -15z m238 -10 c-3 -3 -9 2 -12 12 -6 14 -5 15 5 6
7 -7 10 -15 7 -18z m237 16 c-9 -8 -36 -10 -30 -2 2 4 11 8 20 8 8 0 13 -3 10
-6z m575 -1 c0 -5 -2 -10 -4 -10 -3 0 -8 5 -11 10 -3 6 -1 10 4 10 6 0 11 -4
11 -10z m320 0 c0 -5 -2 -10 -4 -10 -3 0 -8 5 -11 10 -3 6 -1 10 4 10 6 0 11
-4 11 -10z m-2040 -634 c0 -3 -4 -8 -10 -11 -5 -3 -10 -1 -10 4 0 6 5 11 10
11 6 0 10 -2 10 -4z m-60 -26 c0 -5 -2 -10 -4 -10 -3 0 -8 5 -11 10 -3 6 -1
10 4 10 6 0 11 -4 11 -10z m1960 -100 c0 -5 -5 -10 -11 -10 -5 0 -7 5 -4 10 3
6 8 10 11 10 2 0 4 -4 4 -10z m940 -11 c0 -5 -4 -9 -8 -9 -5 0 -9 7 -9 15 0 8
4 12 9 9 4 -3 8 -9 8 -15z m-2596 -75 c3 -8 2 -12 -4 -9 -6 3 -10 10 -10 16 0
14 7 11 14 -7z m2560 0 c3 -8 2 -12 -4 -9 -6 3 -10 10 -10 16 0 14 7 11 14 -7z
m-2944 -4 c0 -5 -5 -10 -11 -10 -5 0 -7 5 -4 10 3 6 8 10 11 10 2 0 4 -4 4
-10z m2530 6 c0 -2 -8 -10 -17 -17 -16 -13 -17 -12 -4 4 13 16 21 21 21 13z
m805 -25 c3 -5 2 -12 -3 -15 -5 -3 -9 1 -9 9 0 17 3 19 12 6z m-1038 -225 c0
-8 -6 -12 -15 -9 -11 5 -11 7 0 14 7 5 13 9 14 9 0 0 1 -6 1 -14z"/>
<path d="M1637 1953 c-4 -3 -7 -13 -7 -21 0 -18 13 -7 16 13 2 17 1 18 -9 8z"/>
<path d="M3099 1948 c15 -21 31 -23 31 -6 0 6 -3 8 -7 5 -3 -4 -13 -1 -22 6
-14 11 -14 10 -2 -5z"/>
<path d="M3330 1957 c0 -2 6 -10 14 -16 11 -9 16 -9 22 1 4 7 4 10 -1 6 -4 -4
-14 -3 -22 3 -7 6 -13 9 -13 6z"/>
<path d="M866 1942 c-3 -5 1 -9 9 -9 8 0 15 4 15 9 0 4 -4 8 -9 8 -6 0 -12 -4
-15 -8z"/>
<path d="M905 1940 c-3 -6 1 -7 9 -4 18 7 21 14 7 14 -6 0 -13 -4 -16 -10z"/>
<path d="M1390 1934 c0 -8 5 -12 10 -9 6 4 8 11 5 16 -9 14 -15 11 -15 -7z"/>
<path d="M1460 1941 c0 -6 4 -13 10 -16 6 -3 7 1 4 9 -7 18 -14 21 -14 7z"/>
<path d="M1705 1939 c-11 -16 -1 -19 13 -3 7 8 8 14 3 14 -5 0 -13 -5 -16 -11z"/>
<path d="M1750 1939 c0 -5 5 -7 10 -4 6 3 10 8 10 11 0 2 -4 4 -10 4 -5 0 -10
-5 -10 -11z"/>
<path d="M1786 1942 c-2 -4 4 -8 14 -8 10 0 16 4 14 8 -3 4 -9 8 -14 8 -5 0
-11 -4 -14 -8z"/>
<path d="M1835 1940 c-3 -5 -1 -10 4 -10 6 0 11 5 11 10 0 6 -2 10 -4 10 -3 0
-8 -4 -11 -10z"/>
<path d="M2290 1942 c0 -5 7 -9 15 -9 8 0 12 4 9 9 -3 4 -9 8 -15 8 -5 0 -9
-4 -9 -8z"/>
<path d="M2564 1938 c-4 -7 -4 -10 1 -6 4 4 14 3 22 -4 11 -8 12 -7 7 6 -7 19
-20 21 -30 4z"/>
<path d="M3156 1941 c9 -9 34 -9 34 -1 0 5 -9 8 -20 7 -10 -1 -17 -3 -14 -6z"/>
<path d="M3380 1941 c0 -6 4 -13 10 -16 6 -3 7 1 4 9 -7 18 -14 21 -14 7z"/>
<path d="M4181 1911 c-8 -5 -9 -11 -3 -15 5 -3 12 1 16 9 6 17 6 18 -13 6z"/>
<path d="M4367 1896 c-3 -8 2 -20 11 -27 14 -11 15 -11 5 0 -6 7 -9 20 -6 27
3 8 3 14 0 14 -3 0 -7 -6 -10 -14z"/>
<path d="M3756 1872 c-3 -5 1 -9 9 -9 8 0 12 4 9 9 -3 4 -7 8 -9 8 -2 0 -6 -4
-9 -8z"/>
<path d="M1390 1666 c0 -2 7 -7 16 -10 8 -3 12 -2 9 4 -6 10 -25 14 -25 6z"/>
<path d="M1506 1658 c3 -5 10 -6 15 -3 13 9 11 12 -6 12 -8 0 -12 -4 -9 -9z"/>
<path d="M3627 1639 c7 -7 15 -10 18 -7 3 3 -2 9 -12 12 -14 6 -15 5 -6 -5z"/>
<path d="M633 1595 c0 -11 4 -12 14 -4 7 6 13 13 13 15 0 2 -6 4 -13 4 -8 0
-14 -7 -14 -15z"/>
<path d="M4456 1555 c4 -8 8 -15 10 -15 2 0 4 7 4 15 0 8 -4 15 -10 15 -5 0
-7 -7 -4 -15z"/>
<path d="M4416 1538 c3 -4 -4 -8 -15 -8 -11 0 -24 -7 -29 -17 -6 -11 -16 -14
-28 -9 -10 4 -15 4 -11 0 4 -4 1 -14 -6 -23 -10 -14 -10 -14 5 -3 14 11 16 11
11 -7 -3 -13 -10 -18 -21 -14 -13 5 -14 3 -5 -7 9 -10 8 -20 -5 -46 -13 -28
-18 -32 -31 -22 -12 9 -12 7 1 -7 16 -17 16 -19 0 -32 -9 -8 -11 -12 -4 -8 6
3 12 1 12 -4 0 -6 -6 -11 -12 -11 -9 0 -8 -4 2 -10 12 -8 13 -11 1 -19 -9 -6
-10 -11 -3 -15 13 -8 4 -36 -10 -36 -6 0 -5 6 2 15 9 10 9 15 1 15 -6 0 -11
-3 -12 -7 0 -5 -2 -15 -4 -24 -2 -12 3 -15 19 -13 19 4 18 3 -3 -6 -14 -6 -21
-16 -17 -25 3 -8 -3 -20 -14 -28 -11 -8 -17 -17 -13 -20 3 -4 2 -7 -3 -8 -5 0
-17 -2 -27 -4 -10 -2 -21 3 -24 12 -5 12 -7 12 -14 1 -7 -10 -9 -9 -9 4 0 9
-9 20 -20 23 -11 3 -20 11 -20 16 0 6 6 7 13 4 6 -4 3 0 -7 9 -10 8 -22 13
-27 11 -4 -3 -5 4 -2 15 3 11 10 17 17 13 6 -4 5 1 -3 10 -15 18 -26 23 -16 7
3 -5 1 -10 -4 -10 -6 0 -11 7 -11 15 0 8 4 15 8 15 5 0 9 7 9 15 0 11 -4 12
-11 5 -16 -16 -30 -12 -16 5 16 19 13 22 -28 28 -38 6 -62 -13 -62 -48 0 -13
-3 -32 -6 -42 -3 -10 -2 -14 3 -8 12 15 36 18 27 3 -12 -19 -12 -48 -1 -55 6
-4 7 -1 2 7 -5 9 -4 11 3 6 9 -5 9 -13 0 -29 -10 -21 -10 -21 7 -7 17 14 18
14 5 -10 -12 -23 -12 -24 3 -11 13 10 17 10 17 1 0 -7 10 -21 22 -31 11 -11
17 -19 12 -19 -6 0 -16 6 -23 13 -11 10 -11 8 0 -10 7 -12 17 -19 21 -17 7 5
12 -10 9 -29 0 -4 2 -6 6 -5 15 3 48 -16 64 -36 13 -16 20 -18 31 -8 11 9 17
9 26 0 9 -9 12 -9 12 3 0 12 2 12 10 -1 9 -13 10 -13 10 0 0 13 1 13 10 0 6
-9 10 -10 10 -3 0 6 12 13 27 15 14 2 29 10 31 18 5 13 3 13 -14 0 -17 -14
-18 -13 -6 1 7 9 23 15 38 13 14 -1 23 0 20 3 -3 4 0 13 6 22 8 9 3 8 -12 -4
l-25 -20 15 20 c8 11 21 24 28 28 6 4 12 15 12 22 0 8 6 15 13 15 8 0 7 3 -3
10 -13 8 -13 11 -1 22 12 11 13 10 6 -2 -5 -8 -4 -12 0 -7 5 4 9 18 10 31 0
18 -3 22 -11 15 -9 -8 -11 -5 -7 11 3 11 10 23 16 27 6 4 7 1 2 -7 -5 -9 -4
-11 4 -6 9 6 9 11 0 23 -11 12 -10 14 6 11 16 -2 19 3 20 39 0 23 -3 39 -6 37
-4 -2 -5 5 -2 16 3 11 12 20 20 20 13 0 13 2 2 17 -9 11 -10 14 -2 10 7 -5 23
-1 37 8 23 15 25 15 36 -4 6 -12 18 -21 26 -21 11 0 14 -5 10 -16 -5 -14 -4
-15 9 -4 13 11 14 10 9 -5 -5 -12 -4 -16 3 -12 7 5 9 0 6 -12 -3 -10 0 -22 6
-25 15 -10 14 -29 -1 -20 -7 4 -5 -2 6 -14 10 -12 21 -20 25 -18 3 2 15 -2 26
-10 10 -8 14 -14 9 -14 -6 0 -15 5 -22 12 -9 9 -12 9 -12 0 0 -7 5 -12 11 -12
5 0 7 -5 3 -11 -4 -8 -1 -8 12 -1 11 6 23 10 29 10 5 0 11 6 13 14 2 9 0 8 -8
-2 -10 -13 -11 -13 -7 0 2 8 11 16 20 18 13 3 15 -1 10 -14 -6 -16 -5 -16 8
-5 29 27 20 77 -12 73 -4 -1 -4 8 -1 20 3 14 1 19 -6 14 -6 -3 -14 -1 -18 5
-4 8 -3 9 4 5 7 -4 12 -2 12 3 0 6 -5 11 -11 11 -5 0 -7 5 -4 10 4 6 11 7 17
4 7 -4 8 -2 4 4 -4 6 -12 9 -19 7 -14 -6 -57 56 -57 82 0 15 -2 16 -10 3 -8
-13 -10 -13 -10 1 0 16 -59 69 -76 69 -4 0 1 -6 11 -14 18 -13 18 -14 -8 -9
-15 3 -24 9 -21 14 3 5 1 9 -5 9 -5 0 -13 -5 -16 -10 -4 -7 -11 -7 -18 -2 -15
12 -48 12 -41 0z m0 -252 c0 -14 -4 -22 -8 -20 -5 3 -6 10 -3 15 4 5 1 9 -5 9
-6 0 -8 5 -5 10 11 18 21 11 21 -14z m-316 -226 c0 -5 -2 -10 -4 -10 -3 0 -8
5 -11 10 -3 6 -1 10 4 10 6 0 11 -4 11 -10z m65 -59 c-6 -5 -25 10 -25 20 0 5
6 4 14 -3 8 -7 12 -15 11 -17z"/>
<path d="M3819 1526 c-8 -9 -3 -33 7 -33 8 0 12 3 9 5 -3 3 0 10 5 17 7 8 5
12 -5 12 -8 0 -15 -1 -16 -1z"/>
<path d="M1707 1429 c7 -7 15 -10 18 -7 3 3 -2 9 -12 12 -14 6 -15 5 -6 -5z"/>
<path d="M1867 1429 c7 -7 15 -10 18 -7 3 3 -2 9 -12 12 -14 6 -15 5 -6 -5z"/>
<path d="M2125 1430 c-3 -6 1 -7 9 -4 18 7 21 14 7 14 -6 0 -13 -4 -16 -10z"/>
<path d="M4297 1423 c3 -7 6 -13 8 -13 2 0 5 6 8 13 3 8 -1 14 -8 14 -7 0 -11
-6 -8 -14z"/>
<path d="M4641 1433 c-1 -17 16 -25 25 -12 4 7 3 9 -4 5 -5 -3 -13 0 -15 6 -4
9 -6 10 -6 1z"/>
<path d="M4477 1399 c-18 -11 -14 -29 6 -29 7 0 6 4 -3 11 -12 9 -11 10 7 6
15 -3 20 -1 16 9 -3 8 -6 14 -7 14 0 0 -9 -5 -19 -11z"/>
<path d="M495 1360 c-3 -5 -1 -10 4 -10 6 0 11 5 11 10 0 6 -2 10 -4 10 -3 0
-8 -4 -11 -10z"/>
<path d="M4025 1360 c-4 -6 -12 -7 -18 -4 -7 4 -8 3 -4 -2 5 -5 22 -9 38 -10
23 -1 27 1 18 12 -14 17 -25 18 -34 4z"/>
<path d="M4703 1335 c0 -8 4 -12 9 -9 5 3 6 10 3 15 -9 13 -12 11 -12 -6z"/>
<path d="M3950 1320 c0 -5 5 -10 10 -10 6 0 10 5 10 10 0 6 -4 10 -10 10 -5 0
-10 -4 -10 -10z"/>
<path d="M2955 1301 c-3 -5 -2 -12 3 -15 5 -3 9 1 9 9 0 17 -3 19 -12 6z"/>
<path d="M3946 1263 c-6 -14 -5 -15 5 -6 7 7 10 15 7 18 -3 3 -9 -2 -12 -12z"/>
<path d="M735 1240 c3 -5 8 -10 11 -10 2 0 4 5 4 10 0 6 -5 10 -11 10 -5 0 -7
-4 -4 -10z"/>
<path d="M3520 1246 c0 -2 7 -7 16 -10 8 -3 12 -2 9 4 -6 10 -25 14 -25 6z"/>
<path d="M3005 1200 c3 -5 8 -10 11 -10 2 0 4 5 4 10 0 6 -5 10 -11 10 -5 0
-7 -4 -4 -10z"/>
<path d="M2432 1145 c-3 -5 -2 -7 3 -3 4 4 14 3 22 -3 10 -9 13 -8 13 0 0 7 4
10 9 6 5 -3 12 -2 15 3 2 4 -9 8 -26 7 -16 0 -32 -4 -36 -10z"/>
<path d="M2560 1150 c-9 -6 -10 -10 -3 -10 6 0 15 5 18 10 8 12 4 12 -15 0z"/>
<path d="M710 1090 c0 -5 5 -10 11 -10 5 0 7 5 4 10 -3 6 -8 10 -11 10 -2 0
-4 -4 -4 -10z"/>
<path d="M1070 1089 c0 -5 5 -7 10 -4 6 3 10 8 10 11 0 2 -4 4 -10 4 -5 0 -10
-5 -10 -11z"/>
<path d="M3170 1096 c0 -2 7 -7 16 -10 8 -3 12 -2 9 4 -6 10 -25 14 -25 6z"/>
<path d="M3210 1089 c0 -5 5 -7 10 -4 6 3 10 8 10 11 0 2 -4 4 -10 4 -5 0 -10
-5 -10 -11z"/>
<path d="M4001 994 c0 -11 3 -14 6 -6 3 7 2 16 -1 19 -3 4 -6 -2 -5 -13z"/>
<path d="M1486 967 c3 -10 9 -15 12 -12 3 3 0 11 -7 18 -10 9 -11 8 -5 -6z"/>
</g>
</svg>
