<?xml version="1.0" standalone="no"?>
<!DOCTYPE svg PUBLIC "-//W3C//DTD SVG 20010904//EN"
 "http://www.w3.org/TR/2001/REC-SVG-20010904/DTD/svg10.dtd">
<svg version="1.0" xmlns="http://www.w3.org/2000/svg"
 width="123.000000pt" height="123.000000pt" viewBox="0 0 123.000000 123.000000"
 preserveAspectRatio="xMidYMid meet">
<metadata>
Created by potrace 1.11, written by Peter Selinger 2001-2013
</metadata>
<g transform="translate(0.000000,123.000000) scale(0.100000,-0.100000)"
fill="#000000" stroke="none">
<path d="M616 932 c-38 -75 -72 -81 -133 -24 l-40 39 -39 -21 c-22 -12 -39
-25 -39 -31 1 -5 4 -32 9 -59 6 -41 5 -51 -13 -70 -19 -20 -27 -22 -69 -15
-26 4 -52 8 -58 8 -5 1 -19 -18 -31 -42 l-21 -43 39 -38 c59 -56 53 -94 -22
-132 -51 -25 -56 -37 -40 -94 6 -21 14 -26 60 -31 80 -10 98 -46 61 -120 -24
-46 -20 -66 16 -93 25 -18 26 -18 74 8 52 28 85 26 75 -5 -6 -17 -1 -19 48
-19 l54 0 44 95 43 95 198 0 198 0 47 -95 48 -95 52 0 c29 0 53 3 53 8 0 4
-80 170 -177 369 l-178 362 -41 1 c-34 0 -43 -4 -52 -25 -15 -31 -42 -23 -43
14 -1 37 -8 74 -17 83 -4 3 -24 9 -44 13 -36 7 -37 6 -62 -43z m363 -484 c1
-5 -64 -8 -144 -8 -80 0 -145 2 -145 5 0 3 33 70 72 150 l73 145 72 -142 c40
-79 72 -146 72 -150z m-501 270 c-3 -7 -11 -13 -18 -13 -7 0 -15 6 -17 13 -3
7 4 12 17 12 13 0 20 -5 18 -12z m192 -77 c0 -15 -120 -251 -128 -251 -14 0
-50 43 -61 73 -23 59 -1 133 47 165 38 25 142 35 142 13z m-250 -286 c0 -8 -7
-15 -15 -15 -8 0 -15 7 -15 15 0 8 7 15 15 15 8 0 15 -7 15 -15z"/>
</g>
</svg>
